<?xml version="1.0" encoding="UTF-8" standalone="no"?>
<svg xmlns="http://www.w3.org/2000/svg" xmlns:xlink="http://www.w3.org/1999/xlink" contentScriptType="application/ecmascript" contentStyleType="text/css" height="1169px" preserveAspectRatio="none" style="width:4576px;height:1169px;" version="1.1" viewBox="0 0 4576 1169" width="4576px" zoomAndPan="magnify"><defs><filter height="300%" id="ff3hqczgee7n9" width="300%" x="-1" y="-1"><feGaussianBlur result="blurOut" stdDeviation="2.0"/><feColorMatrix in="blurOut" result="blurOut2" type="matrix" values="0 0 0 0 0 0 0 0 0 0 0 0 0 0 0 0 0 0 .4 0"/><feOffset dx="4.0" dy="4.0" in="blurOut2" result="blurOut3"/><feBlend in="SourceGraphic" in2="blurOut3" mode="normal"/></filter></defs><g><!--cluster agent--><rect fill="#FFFFFF" filter="url(#ff3hqczgee7n9)" height="571" style="stroke: #000000; stroke-width: 1.5;" width="894" x="1612.05" y="444"/><path d="M1667.05,445 L1667.05,453.2969 L1657.05,463.2969 L1612.05,463.2969 " fill="none" style="stroke: #000000; stroke-width: 1.5;"/><text fill="#000000" font-family="sans-serif" font-size="14" font-weight="bold" lengthAdjust="spacingAndGlyphs" textLength="45" x="1615.05" y="457.9951">agent</text><!--cluster logger--><rect fill="#FFFFFF" filter="url(#ff3hqczgee7n9)" height="341" style="stroke: #000000; stroke-width: 1.5;" width="1093" x="2902.05" y="43"/><path d="M2963.05,44 L2963.05,52.2969 L2953.05,62.2969 L2902.05,62.2969 " fill="none" style="stroke: #000000; stroke-width: 1.5;"/><text fill="#000000" font-family="sans-serif" font-size="14" font-weight="bold" lengthAdjust="spacingAndGlyphs" textLength="51" x="2905.05" y="56.9951">logger</text><!--cluster messagerie--><rect fill="#FFFFFF" filter="url(#ff3hqczgee7n9)" height="589.5" style="stroke: #000000; stroke-width: 1.5;" width="348" x="2530.05" y="24"/><path d="M2632.05,25 L2632.05,33.2969 L2622.05,43.2969 L2530.05,43.2969 " fill="none" style="stroke: #000000; stroke-width: 1.5;"/><text fill="#000000" font-family="sans-serif" font-size="14" font-weight="bold" lengthAdjust="spacingAndGlyphs" textLength="92" x="2533.05" y="37.9951">messagerie</text><!--cluster regles--><rect fill="#FFFFFF" filter="url(#ff3hqczgee7n9)" height="353.5" style="stroke: #000000; stroke-width: 1.5;" width="546" x="4019.05" y="56"/><path d="M4079.05,57 L4079.05,65.2969 L4069.05,75.2969 L4019.05,75.2969 " fill="none" style="stroke: #000000; stroke-width: 1.5;"/><text fill="#000000" font-family="sans-serif" font-size="14" font-weight="bold" lengthAdjust="spacingAndGlyphs" textLength="50" x="4022.05" y="69.9951">regles</text><!--cluster strategie--><rect fill="#FFFFFF" filter="url(#ff3hqczgee7n9)" height="176" style="stroke: #000000; stroke-width: 1.5;" width="1346.0028" x="41.0472" y="654.5"/><path d="M122.0472,655.5 L122.0472,663.7969 L112.0472,673.7969 L41.0472,673.7969 " fill="none" style="stroke: #000000; stroke-width: 1.5;"/><text fill="#000000" font-family="sans-serif" font-size="14" font-weight="bold" lengthAdjust="spacingAndGlyphs" textLength="71" x="44.0472" y="668.4951">strategie</text><!--class Agent--><rect fill="#FEFECE" filter="url(#ff3hqczgee7n9)" height="150.4375" id="Agent" style="stroke: #A80036; stroke-width: 1.5;" width="158" x="2251.05" y="677"/><ellipse cx="2307.3" cy="693" fill="#A9DCDF" rx="11" ry="11" style="stroke: #A80036; stroke-width: 1.0;"/><path d="M2308.8781,694.8125 L2304.8313,694.8125 L2304.4406,695.7969 L2304.8313,695.7969 C2305.2844,695.7969 2305.425,695.8281 2305.5969,695.9531 C2305.8156,696.125 2305.9406,696.375 2305.9406,696.6563 C2305.9406,696.9375 2305.8,697.2344 2305.5344,697.375 C2305.4094,697.4688 2305.1906,697.5 2304.8313,697.5 L2302.5656,697.5 C2301.8156,697.5 2301.4406,697.2188 2301.4406,696.6563 C2301.4406,696.3594 2301.5969,696.0781 2301.8469,695.9219 C2302.0031,695.8125 2302.1594,695.7969 2302.5813,695.7969 L2305.2219,689.2813 L2304.1438,689.2813 C2303.7063,689.2813 2303.5344,689.25 2303.3625,689.1406 C2303.1438,688.9688 2303.0031,688.7188 2303.0031,688.4375 C2303.0031,688.1563 2303.1594,687.875 2303.4094,687.7031 C2303.5656,687.6094 2303.6906,687.5938 2304.1438,687.5938 L2307.8156,687.5938 L2311.2063,695.7969 C2311.675,695.7969 2311.8313,695.8281 2312.0031,695.9688 C2312.2219,696.125 2312.3625,696.375 2312.3625,696.6563 C2312.3625,696.9375 2312.2063,697.2344 2311.9563,697.375 C2311.8156,697.4688 2311.5969,697.5 2311.2375,697.5 L2308.8781,697.5 C2308.4563,697.5 2308.2531,697.4531 2308.1125,697.3281 C2307.8938,697.1719 2307.7531,696.9219 2307.7531,696.6563 C2307.7531,696.3594 2307.9094,696.0781 2308.1594,695.9219 C2308.3156,695.8125 2308.425,695.7969 2308.8781,695.7969 L2309.2688,695.7969 Z M2308.175,693.1094 L2306.8469,689.8438 L2305.5031,693.1094 Z "/><text fill="#000000" font-family="sans-serif" font-size="12" font-style="italic" lengthAdjust="spacingAndGlyphs" textLength="37" x="2327.8" y="697.1543">Agent</text><line style="stroke: #A80036; stroke-width: 1.5;" x1="2252.05" x2="2408.05" y1="709" y2="709"/><text fill="#000000" font-family="sans-serif" font-size="11" lengthAdjust="spacingAndGlyphs" textLength="132" x="2271.05" y="723.2104">preference: Preference</text><polygon fill="none" points="2262.05,728.707,2266.05,732.707,2262.05,736.707,2258.05,732.707" style="stroke: #B38D22; stroke-width: 1.0;"/><text fill="#000000" font-family="sans-serif" font-size="11" lengthAdjust="spacingAndGlyphs" textLength="89" x="2271.05" y="736.0151">thread : Thread</text><rect fill="none" height="6" style="stroke: #C82930; stroke-width: 1.0;" width="6" x="2259.05" y="743.5117"/><text fill="#000000" font-family="sans-serif" font-size="11" lengthAdjust="spacingAndGlyphs" textLength="36" x="2271.05" y="748.8198">id : int</text><rect fill="none" height="6" style="stroke: #C82930; stroke-width: 1.0;" width="6" x="2259.05" y="756.3164"/><text fill="#000000" font-family="sans-serif" font-size="11" lengthAdjust="spacingAndGlyphs" text-decoration="underline" textLength="70" x="2271.05" y="761.6245">compteur_id</text><line style="stroke: #000000; stroke-width: 1.0;" x1="2271.05" x2="2341.05" y1="763.6245" y2="763.6245"/><line style="stroke: #A80036; stroke-width: 1.5;" x1="2252.05" x2="2408.05" y1="768.2188" y2="768.2188"/><ellipse cx="2262.05" cy="780.1211" fill="#84BE84" rx="3" ry="3" style="stroke: #038048; stroke-width: 1.0;"/><text fill="#000000" font-family="sans-serif" font-size="11" lengthAdjust="spacingAndGlyphs" textLength="62" x="2271.05" y="782.4292">getId() : int</text><ellipse cx="2262.05" cy="792.9258" fill="#84BE84" rx="3" ry="3" style="stroke: #038048; stroke-width: 1.0;"/><text fill="#000000" font-family="sans-serif" font-size="11" lengthAdjust="spacingAndGlyphs" textLength="76" x="2271.05" y="795.2339">setId(int) : int</text><ellipse cx="2262.05" cy="805.7305" fill="#84BE84" rx="3" ry="3" style="stroke: #038048; stroke-width: 1.0;"/><text fill="#000000" font-family="sans-serif" font-size="11" lengthAdjust="spacingAndGlyphs" textLength="102" x="2271.05" y="808.0386">Agent(Preference)</text><ellipse cx="2262.05" cy="818.5352" fill="#84BE84" rx="3" ry="3" style="stroke: #038048; stroke-width: 1.0;"/><text fill="#000000" font-family="sans-serif" font-size="11" font-style="italic" lengthAdjust="spacingAndGlyphs" textLength="27" x="2271.05" y="820.8433">run()</text><!--class AgentFournisseur--><rect fill="#FEFECE" filter="url(#ff3hqczgee7n9)" height="137.6328" id="AgentFournisseur" style="stroke: #A80036; stroke-width: 1.5;" width="320" x="2170.05" y="479"/><ellipse cx="2270.3" cy="495" fill="#ADD1B2" rx="11" ry="11" style="stroke: #A80036; stroke-width: 1.0;"/><path d="M2272.6438,490.6719 L2272.8156,490.75 C2273.0344,490.4375 2273.2375,490.3438 2273.5344,490.3438 C2273.8313,490.3438 2274.1125,490.4844 2274.2688,490.75 C2274.3625,490.9063 2274.3781,491.0313 2274.3781,491.4688 L2274.3781,492.8906 C2274.3781,493.3125 2274.3469,493.5 2274.2375,493.6563 C2274.0656,493.875 2273.8,494.0156 2273.5344,494.0156 C2273.3156,494.0156 2273.0813,493.9063 2272.9406,493.7656 C2272.8,493.6406 2272.7688,493.5156 2272.7063,493.1094 C2272.6125,492.7031 2272.4406,492.4844 2271.9563,492.2031 C2271.4875,491.9531 2270.8781,491.7969 2270.3,491.7969 C2268.5656,491.7969 2267.3156,493.1094 2267.3156,494.8906 L2267.3156,495.9844 C2267.3156,497.6875 2268.6125,498.7813 2270.6594,498.7813 C2271.425,498.7813 2272.1125,498.6563 2272.5344,498.3906 C2272.7219,498.2969 2272.7219,498.2969 2273.175,497.8125 C2273.3625,497.625 2273.5656,497.5469 2273.7844,497.5469 C2274.2531,497.5469 2274.6438,497.9375 2274.6438,498.3906 C2274.6438,498.7813 2274.3156,499.2344 2273.7375,499.6406 C2272.9875,500.1875 2271.8313,500.4844 2270.6125,500.4844 C2267.7219,500.4844 2265.6125,498.5938 2265.6125,496.0156 L2265.6125,494.8906 C2265.6125,492.1719 2267.6125,490.0938 2270.2375,490.0938 C2271.1125,490.0938 2271.7063,490.2344 2272.6438,490.6719 Z "/><text fill="#000000" font-family="sans-serif" font-size="12" lengthAdjust="spacingAndGlyphs" textLength="111" x="2290.8" y="499.1543">AgentFournisseur</text><line style="stroke: #A80036; stroke-width: 1.5;" x1="2171.05" x2="2489.05" y1="511" y2="511"/><rect fill="none" height="6" style="stroke: #C82930; stroke-width: 1.0;" width="6" x="2178.05" y="519.9023"/><text fill="#000000" font-family="sans-serif" font-size="11" lengthAdjust="spacingAndGlyphs" textLength="73" x="2190.05" y="525.2104">exit: boolean</text><ellipse cx="2181.05" cy="535.707" fill="none" rx="3" ry="3" style="stroke: #038048; stroke-width: 1.0;"/><text fill="#000000" font-family="sans-serif" font-size="11" lengthAdjust="spacingAndGlyphs" textLength="247" x="2190.05" y="538.0151">strategieFournisseur: StrategieFournisseur</text><ellipse cx="2181.05" cy="548.5117" fill="none" rx="3" ry="3" style="stroke: #038048; stroke-width: 1.0;"/><text fill="#000000" font-family="sans-serif" font-size="11" lengthAdjust="spacingAndGlyphs" text-decoration="underline" textLength="283" x="2190.05" y="550.8198">agentFournisseurs: ArrayList&lt;AgentFournisseur&gt;</text><line style="stroke: #000000; stroke-width: 1.0;" x1="2190.05" x2="2473.05" y1="552.8198" y2="552.8198"/><line style="stroke: #A80036; stroke-width: 1.5;" x1="2171.05" x2="2489.05" y1="557.4141" y2="557.4141"/><ellipse cx="2181.05" cy="569.3164" fill="#84BE84" rx="3" ry="3" style="stroke: #038048; stroke-width: 1.0;"/><text fill="#000000" font-family="sans-serif" font-size="11" lengthAdjust="spacingAndGlyphs" textLength="294" x="2190.05" y="571.6245">AgentFournisseur(Preference,StrategieFournisseur)</text><ellipse cx="2181.05" cy="582.1211" fill="#84BE84" rx="3" ry="3" style="stroke: #038048; stroke-width: 1.0;"/><text fill="#000000" font-family="sans-serif" font-size="11" lengthAdjust="spacingAndGlyphs" textLength="27" x="2190.05" y="584.4292">run()</text><ellipse cx="2181.05" cy="594.9258" fill="#84BE84" rx="3" ry="3" style="stroke: #038048; stroke-width: 1.0;"/><text fill="#000000" font-family="sans-serif" font-size="11" lengthAdjust="spacingAndGlyphs" textLength="65" x="2190.05" y="597.2339">stopAgent()</text><rect fill="#F24D5C" height="6" style="stroke: #C82930; stroke-width: 1.0;" width="6" x="2178.05" y="604.7305"/><text fill="#000000" font-family="sans-serif" font-size="11" lengthAdjust="spacingAndGlyphs" textLength="160" x="2190.05" y="610.0386">isNegTimeUp(long): boolean</text><!--class AgentNegociateur--><rect fill="#FEFECE" filter="url(#ff3hqczgee7n9)" height="137.6328" id="AgentNegociateur" style="stroke: #A80036; stroke-width: 1.5;" width="320" x="1815.05" y="479"/><ellipse cx="1913.8" cy="495" fill="#ADD1B2" rx="11" ry="11" style="stroke: #A80036; stroke-width: 1.0;"/><path d="M1916.1438,490.6719 L1916.3156,490.75 C1916.5344,490.4375 1916.7375,490.3438 1917.0344,490.3438 C1917.3313,490.3438 1917.6125,490.4844 1917.7688,490.75 C1917.8625,490.9063 1917.8781,491.0313 1917.8781,491.4688 L1917.8781,492.8906 C1917.8781,493.3125 1917.8469,493.5 1917.7375,493.6563 C1917.5656,493.875 1917.3,494.0156 1917.0344,494.0156 C1916.8156,494.0156 1916.5813,493.9063 1916.4406,493.7656 C1916.3,493.6406 1916.2688,493.5156 1916.2063,493.1094 C1916.1125,492.7031 1915.9406,492.4844 1915.4563,492.2031 C1914.9875,491.9531 1914.3781,491.7969 1913.8,491.7969 C1912.0656,491.7969 1910.8156,493.1094 1910.8156,494.8906 L1910.8156,495.9844 C1910.8156,497.6875 1912.1125,498.7813 1914.1594,498.7813 C1914.925,498.7813 1915.6125,498.6563 1916.0344,498.3906 C1916.2219,498.2969 1916.2219,498.2969 1916.675,497.8125 C1916.8625,497.625 1917.0656,497.5469 1917.2844,497.5469 C1917.7531,497.5469 1918.1438,497.9375 1918.1438,498.3906 C1918.1438,498.7813 1917.8156,499.2344 1917.2375,499.6406 C1916.4875,500.1875 1915.3313,500.4844 1914.1125,500.4844 C1911.2219,500.4844 1909.1125,498.5938 1909.1125,496.0156 L1909.1125,494.8906 C1909.1125,492.1719 1911.1125,490.0938 1913.7375,490.0938 C1914.6125,490.0938 1915.2063,490.2344 1916.1438,490.6719 Z "/><text fill="#000000" font-family="sans-serif" font-size="12" lengthAdjust="spacingAndGlyphs" textLength="114" x="1934.3" y="499.1543">AgentNegociateur</text><line style="stroke: #A80036; stroke-width: 1.5;" x1="1816.05" x2="2134.05" y1="511" y2="511"/><rect fill="none" height="6" style="stroke: #C82930; stroke-width: 1.0;" width="6" x="1823.05" y="519.9023"/><text fill="#000000" font-family="sans-serif" font-size="11" lengthAdjust="spacingAndGlyphs" textLength="73" x="1835.05" y="525.2104">exit: boolean</text><rect fill="none" height="6" style="stroke: #C82930; stroke-width: 1.0;" width="6" x="1823.05" y="532.707"/><text fill="#000000" font-family="sans-serif" font-size="11" lengthAdjust="spacingAndGlyphs" textLength="247" x="1835.05" y="538.0151">strategieNegociateur: StrategieNegociateur</text><line style="stroke: #A80036; stroke-width: 1.5;" x1="1816.05" x2="2134.05" y1="544.6094" y2="544.6094"/><ellipse cx="1826.05" cy="556.5117" fill="#84BE84" rx="3" ry="3" style="stroke: #038048; stroke-width: 1.0;"/><text fill="#000000" font-family="sans-serif" font-size="11" lengthAdjust="spacingAndGlyphs" textLength="274" x="1835.05" y="558.8198">getStrategieNegociateur(): StrategieNegociateur</text><ellipse cx="1826.05" cy="569.3164" fill="#84BE84" rx="3" ry="3" style="stroke: #038048; stroke-width: 1.0;"/><text fill="#000000" font-family="sans-serif" font-size="11" lengthAdjust="spacingAndGlyphs" textLength="266" x="1835.05" y="571.6245">setStrategieNegociateur(StrategieNegociateur)</text><ellipse cx="1826.05" cy="582.1211" fill="#84BE84" rx="3" ry="3" style="stroke: #038048; stroke-width: 1.0;"/><text fill="#000000" font-family="sans-serif" font-size="11" lengthAdjust="spacingAndGlyphs" textLength="294" x="1835.05" y="584.4292">AgentNegociateur(Preference,StrategieNegociateur)</text><ellipse cx="1826.05" cy="594.9258" fill="#84BE84" rx="3" ry="3" style="stroke: #038048; stroke-width: 1.0;"/><text fill="#000000" font-family="sans-serif" font-size="11" lengthAdjust="spacingAndGlyphs" textLength="27" x="1835.05" y="597.2339">run()</text><ellipse cx="1826.05" cy="607.7305" fill="#84BE84" rx="3" ry="3" style="stroke: #038048; stroke-width: 1.0;"/><text fill="#000000" font-family="sans-serif" font-size="11" lengthAdjust="spacingAndGlyphs" textLength="65" x="1835.05" y="610.0386">stopAgent()</text><!--class Preference--><rect fill="#FEFECE" filter="url(#ff3hqczgee7n9)" height="112.0234" id="Preference" style="stroke: #A80036; stroke-width: 1.5;" width="235" x="1920.55" y="887"/><ellipse cx="1999.3" cy="903" fill="#ADD1B2" rx="11" ry="11" style="stroke: #A80036; stroke-width: 1.0;"/><path d="M2001.6438,898.6719 L2001.8156,898.75 C2002.0344,898.4375 2002.2375,898.3438 2002.5344,898.3438 C2002.8313,898.3438 2003.1125,898.4844 2003.2688,898.75 C2003.3625,898.9063 2003.3781,899.0313 2003.3781,899.4688 L2003.3781,900.8906 C2003.3781,901.3125 2003.3469,901.5 2003.2375,901.6563 C2003.0656,901.875 2002.8,902.0156 2002.5344,902.0156 C2002.3156,902.0156 2002.0813,901.9063 2001.9406,901.7656 C2001.8,901.6406 2001.7688,901.5156 2001.7063,901.1094 C2001.6125,900.7031 2001.4406,900.4844 2000.9563,900.2031 C2000.4875,899.9531 1999.8781,899.7969 1999.3,899.7969 C1997.5656,899.7969 1996.3156,901.1094 1996.3156,902.8906 L1996.3156,903.9844 C1996.3156,905.6875 1997.6125,906.7813 1999.6594,906.7813 C2000.425,906.7813 2001.1125,906.6563 2001.5344,906.3906 C2001.7219,906.2969 2001.7219,906.2969 2002.175,905.8125 C2002.3625,905.625 2002.5656,905.5469 2002.7844,905.5469 C2003.2531,905.5469 2003.6438,905.9375 2003.6438,906.3906 C2003.6438,906.7813 2003.3156,907.2344 2002.7375,907.6406 C2001.9875,908.1875 2000.8313,908.4844 1999.6125,908.4844 C1996.7219,908.4844 1994.6125,906.5938 1994.6125,904.0156 L1994.6125,902.8906 C1994.6125,900.1719 1996.6125,898.0938 1999.2375,898.0938 C2000.1125,898.0938 2000.7063,898.2344 2001.6438,898.6719 Z "/><text fill="#000000" font-family="sans-serif" font-size="12" lengthAdjust="spacingAndGlyphs" textLength="69" x="2019.8" y="907.1543">Preference</text><line style="stroke: #A80036; stroke-width: 1.5;" x1="1921.55" x2="2154.55" y1="919" y2="919"/><rect fill="none" height="6" style="stroke: #C82930; stroke-width: 1.0;" width="6" x="1928.55" y="927.9023"/><text fill="#000000" font-family="sans-serif" font-size="11" lengthAdjust="spacingAndGlyphs" textLength="85" x="1940.55" y="933.2104">budget: double</text><rect fill="none" height="6" style="stroke: #C82930; stroke-width: 1.0;" width="6" x="1928.55" y="940.707"/><text fill="#000000" font-family="sans-serif" font-size="11" lengthAdjust="spacingAndGlyphs" textLength="209" x="1940.55" y="946.0151">compagnies: ArrayList&lt;Compagnie&gt;</text><rect fill="none" height="6" style="stroke: #C82930; stroke-width: 1.0;" width="6" x="1928.55" y="953.5117"/><text fill="#000000" font-family="sans-serif" font-size="11" lengthAdjust="spacingAndGlyphs" textLength="113" x="1940.55" y="958.8198">dateVenteMax: Date</text><rect fill="none" height="6" style="stroke: #C82930; stroke-width: 1.0;" width="6" x="1928.55" y="966.3164"/><text fill="#000000" font-family="sans-serif" font-size="11" lengthAdjust="spacingAndGlyphs" textLength="110" x="1940.55" y="971.6245">dateVenteMin: Date</text><rect fill="none" height="6" style="stroke: #C82930; stroke-width: 1.0;" width="6" x="1928.55" y="979.1211"/><text fill="#000000" font-family="sans-serif" font-size="11" lengthAdjust="spacingAndGlyphs" textLength="111" x="1940.55" y="984.4292">prixDepNeg: double</text><line style="stroke: #A80036; stroke-width: 1.5;" x1="1921.55" x2="2154.55" y1="991.0234" y2="991.0234"/><!--class Proposition--><rect fill="#FEFECE" filter="url(#ff3hqczgee7n9)" height="60.8047" id="Proposition" style="stroke: #A80036; stroke-width: 1.5;" width="151" x="1628.55" y="517.5"/><ellipse cx="1665.15" cy="533.5" fill="#ADD1B2" rx="11" ry="11" style="stroke: #A80036; stroke-width: 1.0;"/><path d="M1667.4937,529.1719 L1667.6656,529.25 C1667.8844,528.9375 1668.0875,528.8438 1668.3844,528.8438 C1668.6812,528.8438 1668.9625,528.9844 1669.1187,529.25 C1669.2125,529.4063 1669.2281,529.5313 1669.2281,529.9688 L1669.2281,531.3906 C1669.2281,531.8125 1669.1969,532 1669.0875,532.1563 C1668.9156,532.375 1668.65,532.5156 1668.3844,532.5156 C1668.1656,532.5156 1667.9312,532.4063 1667.7906,532.2656 C1667.65,532.1406 1667.6187,532.0156 1667.5562,531.6094 C1667.4625,531.2031 1667.2906,530.9844 1666.8062,530.7031 C1666.3375,530.4531 1665.7281,530.2969 1665.15,530.2969 C1663.4156,530.2969 1662.1656,531.6094 1662.1656,533.3906 L1662.1656,534.4844 C1662.1656,536.1875 1663.4625,537.2813 1665.5094,537.2813 C1666.275,537.2813 1666.9625,537.1563 1667.3844,536.8906 C1667.5719,536.7969 1667.5719,536.7969 1668.025,536.3125 C1668.2125,536.125 1668.4156,536.0469 1668.6344,536.0469 C1669.1031,536.0469 1669.4937,536.4375 1669.4937,536.8906 C1669.4937,537.2813 1669.1656,537.7344 1668.5875,538.1406 C1667.8375,538.6875 1666.6812,538.9844 1665.4625,538.9844 C1662.5719,538.9844 1660.4625,537.0938 1660.4625,534.5156 L1660.4625,533.3906 C1660.4625,530.6719 1662.4625,528.5938 1665.0875,528.5938 C1665.9625,528.5938 1666.5562,528.7344 1667.4937,529.1719 Z "/><text fill="#000000" font-family="sans-serif" font-size="12" lengthAdjust="spacingAndGlyphs" textLength="71" x="1683.95" y="537.6543">Proposition</text><line style="stroke: #A80036; stroke-width: 1.5;" x1="1629.55" x2="1778.55" y1="549.5" y2="549.5"/><rect fill="none" height="6" style="stroke: #C82930; stroke-width: 1.0;" width="6" x="1636.55" y="558.4023"/><text fill="#000000" font-family="sans-serif" font-size="11" lengthAdjust="spacingAndGlyphs" textLength="125" x="1648.55" y="563.7104">montant_prop: double</text><line style="stroke: #A80036; stroke-width: 1.5;" x1="1629.55" x2="1778.55" y1="570.3047" y2="570.3047"/><!--class ConsoleLogger--><rect fill="#FEFECE" filter="url(#ff3hqczgee7n9)" height="112.0234" id="ConsoleLogger" style="stroke: #A80036; stroke-width: 1.5;" width="244" x="3735.05" y="78"/><ellipse cx="3806.3" cy="94" fill="#ADD1B2" rx="11" ry="11" style="stroke: #A80036; stroke-width: 1.0;"/><path d="M3808.6438,89.6719 L3808.8156,89.75 C3809.0344,89.4375 3809.2375,89.3438 3809.5344,89.3438 C3809.8313,89.3438 3810.1125,89.4844 3810.2688,89.75 C3810.3625,89.9063 3810.3781,90.0313 3810.3781,90.4688 L3810.3781,91.8906 C3810.3781,92.3125 3810.3469,92.5 3810.2375,92.6563 C3810.0656,92.875 3809.8,93.0156 3809.5344,93.0156 C3809.3156,93.0156 3809.0813,92.9063 3808.9406,92.7656 C3808.8,92.6406 3808.7688,92.5156 3808.7063,92.1094 C3808.6125,91.7031 3808.4406,91.4844 3807.9563,91.2031 C3807.4875,90.9531 3806.8781,90.7969 3806.3,90.7969 C3804.5656,90.7969 3803.3156,92.1094 3803.3156,93.8906 L3803.3156,94.9844 C3803.3156,96.6875 3804.6125,97.7813 3806.6594,97.7813 C3807.425,97.7813 3808.1125,97.6563 3808.5344,97.3906 C3808.7219,97.2969 3808.7219,97.2969 3809.175,96.8125 C3809.3625,96.625 3809.5656,96.5469 3809.7844,96.5469 C3810.2531,96.5469 3810.6438,96.9375 3810.6438,97.3906 C3810.6438,97.7813 3810.3156,98.2344 3809.7375,98.6406 C3808.9875,99.1875 3807.8313,99.4844 3806.6125,99.4844 C3803.7219,99.4844 3801.6125,97.5938 3801.6125,95.0156 L3801.6125,93.8906 C3801.6125,91.1719 3803.6125,89.0938 3806.2375,89.0938 C3807.1125,89.0938 3807.7063,89.2344 3808.6438,89.6719 Z "/><text fill="#000000" font-family="sans-serif" font-size="12" lengthAdjust="spacingAndGlyphs" textLength="93" x="3826.8" y="98.1543">ConsoleLogger</text><line style="stroke: #A80036; stroke-width: 1.5;" x1="3736.05" x2="3978.05" y1="110" y2="110"/><rect fill="none" height="6" style="stroke: #C82930; stroke-width: 1.0;" width="6" x="3743.05" y="118.9023"/><text fill="#000000" font-family="sans-serif" font-size="11" lengthAdjust="spacingAndGlyphs" text-decoration="underline" textLength="176" x="3755.05" y="124.2104">logger: java.util.logging.Logger</text><line style="stroke: #000000; stroke-width: 1.0;" x1="3755.05" x2="3931.05" y1="126.2104" y2="126.2104"/><line style="stroke: #A80036; stroke-width: 1.5;" x1="3736.05" x2="3978.05" y1="130.8047" y2="130.8047"/><rect fill="#F24D5C" height="6" style="stroke: #C82930; stroke-width: 1.0;" width="6" x="3743.05" y="139.707"/><text fill="#000000" font-family="sans-serif" font-size="11" lengthAdjust="spacingAndGlyphs" text-decoration="underline" textLength="218" x="3755.05" y="145.0151">getInstance() : java.util.logging.Logger</text><line style="stroke: #000000; stroke-width: 1.0;" x1="3755.05" x2="3973.05" y1="147.0151" y2="147.0151"/><ellipse cx="3746.05" cy="155.5117" fill="#84BE84" rx="3" ry="3" style="stroke: #038048; stroke-width: 1.0;"/><text fill="#000000" font-family="sans-serif" font-size="11" lengthAdjust="spacingAndGlyphs" text-decoration="underline" textLength="80" x="3755.05" y="157.8198">logInfo(String)</text><line style="stroke: #000000; stroke-width: 1.0;" x1="3755.05" x2="3835.05" y1="159.8198" y2="159.8198"/><ellipse cx="3746.05" cy="168.3164" fill="#84BE84" rx="3" ry="3" style="stroke: #038048; stroke-width: 1.0;"/><text fill="#000000" font-family="sans-serif" font-size="11" lengthAdjust="spacingAndGlyphs" text-decoration="underline" textLength="88" x="3755.05" y="170.6245">logError(String)</text><line style="stroke: #000000; stroke-width: 1.0;" x1="3755.05" x2="3843.05" y1="172.6245" y2="172.6245"/><ellipse cx="3746.05" cy="181.1211" fill="#84BE84" rx="3" ry="3" style="stroke: #038048; stroke-width: 1.0;"/><text fill="#000000" font-family="sans-serif" font-size="11" lengthAdjust="spacingAndGlyphs" text-decoration="underline" textLength="104" x="3755.05" y="183.4292">logWarning(String)</text><line style="stroke: #000000; stroke-width: 1.0;" x1="3755.05" x2="3859.05" y1="185.4292" y2="185.4292"/><!--class FileLogger--><rect fill="#FEFECE" filter="url(#ff3hqczgee7n9)" height="112.0234" id="FileLogger" style="stroke: #A80036; stroke-width: 1.5;" width="244" x="3456.05" y="78"/><ellipse cx="3541.8" cy="94" fill="#ADD1B2" rx="11" ry="11" style="stroke: #A80036; stroke-width: 1.0;"/><path d="M3544.1438,89.6719 L3544.3156,89.75 C3544.5344,89.4375 3544.7375,89.3438 3545.0344,89.3438 C3545.3313,89.3438 3545.6125,89.4844 3545.7688,89.75 C3545.8625,89.9063 3545.8781,90.0313 3545.8781,90.4688 L3545.8781,91.8906 C3545.8781,92.3125 3545.8469,92.5 3545.7375,92.6563 C3545.5656,92.875 3545.3,93.0156 3545.0344,93.0156 C3544.8156,93.0156 3544.5813,92.9063 3544.4406,92.7656 C3544.3,92.6406 3544.2688,92.5156 3544.2063,92.1094 C3544.1125,91.7031 3543.9406,91.4844 3543.4563,91.2031 C3542.9875,90.9531 3542.3781,90.7969 3541.8,90.7969 C3540.0656,90.7969 3538.8156,92.1094 3538.8156,93.8906 L3538.8156,94.9844 C3538.8156,96.6875 3540.1125,97.7813 3542.1594,97.7813 C3542.925,97.7813 3543.6125,97.6563 3544.0344,97.3906 C3544.2219,97.2969 3544.2219,97.2969 3544.675,96.8125 C3544.8625,96.625 3545.0656,96.5469 3545.2844,96.5469 C3545.7531,96.5469 3546.1438,96.9375 3546.1438,97.3906 C3546.1438,97.7813 3545.8156,98.2344 3545.2375,98.6406 C3544.4875,99.1875 3543.3313,99.4844 3542.1125,99.4844 C3539.2219,99.4844 3537.1125,97.5938 3537.1125,95.0156 L3537.1125,93.8906 C3537.1125,91.1719 3539.1125,89.0938 3541.7375,89.0938 C3542.6125,89.0938 3543.2063,89.2344 3544.1438,89.6719 Z "/><text fill="#000000" font-family="sans-serif" font-size="12" lengthAdjust="spacingAndGlyphs" textLength="64" x="3562.3" y="98.1543">FileLogger</text><line style="stroke: #A80036; stroke-width: 1.5;" x1="3457.05" x2="3699.05" y1="110" y2="110"/><rect fill="none" height="6" style="stroke: #C82930; stroke-width: 1.0;" width="6" x="3464.05" y="118.9023"/><text fill="#000000" font-family="sans-serif" font-size="11" lengthAdjust="spacingAndGlyphs" text-decoration="underline" textLength="176" x="3476.05" y="124.2104">logger: java.util.logging.Logger</text><line style="stroke: #000000; stroke-width: 1.0;" x1="3476.05" x2="3652.05" y1="126.2104" y2="126.2104"/><line style="stroke: #A80036; stroke-width: 1.5;" x1="3457.05" x2="3699.05" y1="130.8047" y2="130.8047"/><rect fill="#F24D5C" height="6" style="stroke: #C82930; stroke-width: 1.0;" width="6" x="3464.05" y="139.707"/><text fill="#000000" font-family="sans-serif" font-size="11" lengthAdjust="spacingAndGlyphs" text-decoration="underline" textLength="218" x="3476.05" y="145.0151">getInstance() : java.util.logging.Logger</text><line style="stroke: #000000; stroke-width: 1.0;" x1="3476.05" x2="3694.05" y1="147.0151" y2="147.0151"/><ellipse cx="3467.05" cy="155.5117" fill="#84BE84" rx="3" ry="3" style="stroke: #038048; stroke-width: 1.0;"/><text fill="#000000" font-family="sans-serif" font-size="11" lengthAdjust="spacingAndGlyphs" text-decoration="underline" textLength="80" x="3476.05" y="157.8198">logInfo(String)</text><line style="stroke: #000000; stroke-width: 1.0;" x1="3476.05" x2="3556.05" y1="159.8198" y2="159.8198"/><ellipse cx="3467.05" cy="168.3164" fill="#84BE84" rx="3" ry="3" style="stroke: #038048; stroke-width: 1.0;"/><text fill="#000000" font-family="sans-serif" font-size="11" lengthAdjust="spacingAndGlyphs" text-decoration="underline" textLength="88" x="3476.05" y="170.6245">logError(String)</text><line style="stroke: #000000; stroke-width: 1.0;" x1="3476.05" x2="3564.05" y1="172.6245" y2="172.6245"/><ellipse cx="3467.05" cy="181.1211" fill="#84BE84" rx="3" ry="3" style="stroke: #038048; stroke-width: 1.0;"/><text fill="#000000" font-family="sans-serif" font-size="11" lengthAdjust="spacingAndGlyphs" text-decoration="underline" textLength="104" x="3476.05" y="183.4292">logWarning(String)</text><line style="stroke: #000000; stroke-width: 1.0;" x1="3476.05" x2="3580.05" y1="185.4292" y2="185.4292"/><!--class Logger--><rect fill="#FEFECE" filter="url(#ff3hqczgee7n9)" height="48" id="Logger" style="stroke: #A80036; stroke-width: 1.5;" width="76" x="3679.05" y="320"/><ellipse cx="3694.05" cy="336" fill="#B4A7E5" rx="11" ry="11" style="stroke: #A80036; stroke-width: 1.0;"/><path d="M3695.0031,332.7813 L3695.0031,339.2969 L3696.7219,339.2969 C3697.175,339.2969 3697.3156,339.3281 3697.4875,339.4531 C3697.7219,339.625 3697.8313,339.875 3697.8313,340.1563 C3697.8313,340.7188 3697.4719,341 3696.7219,341 L3691.5813,341 C3691.175,341 3690.9719,340.9531 3690.8156,340.8281 C3690.5969,340.6719 3690.4563,340.4063 3690.4563,340.1563 C3690.4563,339.8594 3690.6125,339.5781 3690.8625,339.4219 C3691.0188,339.3125 3691.1438,339.2969 3691.5813,339.2969 L3693.3,339.2969 L3693.3,332.7813 L3691.5813,332.7813 C3691.1594,332.7813 3690.9719,332.75 3690.8156,332.6406 C3690.5969,332.4688 3690.4563,332.2188 3690.4563,331.9375 C3690.4563,331.6563 3690.6125,331.3594 3690.8625,331.2031 C3691.0188,331.1094 3691.1438,331.0938 3691.5813,331.0938 L3696.7219,331.0938 C3697.175,331.0938 3697.3156,331.125 3697.4875,331.2344 C3697.7219,331.4063 3697.8313,331.6719 3697.8313,331.9375 C3697.8313,332.2344 3697.6906,332.5156 3697.425,332.6719 C3697.3,332.75 3697.1125,332.7813 3696.7219,332.7813 Z "/><text fill="#000000" font-family="sans-serif" font-size="12" font-style="italic" lengthAdjust="spacingAndGlyphs" textLength="44" x="3708.05" y="340.1543">Logger</text><line style="stroke: #A80036; stroke-width: 1.5;" x1="3680.05" x2="3754.05" y1="352" y2="352"/><line style="stroke: #A80036; stroke-width: 1.5;" x1="3680.05" x2="3754.05" y1="360" y2="360"/><!--class LoggerUtil--><rect fill="#FEFECE" filter="url(#ff3hqczgee7n9)" height="112.0234" id="LoggerUtil" style="stroke: #A80036; stroke-width: 1.5;" width="337" x="3083.55" y="78"/><ellipse cx="3216.3" cy="94" fill="#ADD1B2" rx="11" ry="11" style="stroke: #A80036; stroke-width: 1.0;"/><path d="M3218.6438,89.6719 L3218.8156,89.75 C3219.0344,89.4375 3219.2375,89.3438 3219.5344,89.3438 C3219.8313,89.3438 3220.1125,89.4844 3220.2688,89.75 C3220.3625,89.9063 3220.3781,90.0313 3220.3781,90.4688 L3220.3781,91.8906 C3220.3781,92.3125 3220.3469,92.5 3220.2375,92.6563 C3220.0656,92.875 3219.8,93.0156 3219.5344,93.0156 C3219.3156,93.0156 3219.0813,92.9063 3218.9406,92.7656 C3218.8,92.6406 3218.7688,92.5156 3218.7063,92.1094 C3218.6125,91.7031 3218.4406,91.4844 3217.9563,91.2031 C3217.4875,90.9531 3216.8781,90.7969 3216.3,90.7969 C3214.5656,90.7969 3213.3156,92.1094 3213.3156,93.8906 L3213.3156,94.9844 C3213.3156,96.6875 3214.6125,97.7813 3216.6594,97.7813 C3217.425,97.7813 3218.1125,97.6563 3218.5344,97.3906 C3218.7219,97.2969 3218.7219,97.2969 3219.175,96.8125 C3219.3625,96.625 3219.5656,96.5469 3219.7844,96.5469 C3220.2531,96.5469 3220.6438,96.9375 3220.6438,97.3906 C3220.6438,97.7813 3220.3156,98.2344 3219.7375,98.6406 C3218.9875,99.1875 3217.8313,99.4844 3216.6125,99.4844 C3213.7219,99.4844 3211.6125,97.5938 3211.6125,95.0156 L3211.6125,93.8906 C3211.6125,91.1719 3213.6125,89.0938 3216.2375,89.0938 C3217.1125,89.0938 3217.7063,89.2344 3218.6438,89.6719 Z "/><text fill="#000000" font-family="sans-serif" font-size="12" lengthAdjust="spacingAndGlyphs" textLength="63" x="3236.8" y="98.1543">LoggerUtil</text><line style="stroke: #A80036; stroke-width: 1.5;" x1="3084.55" x2="3419.55" y1="110" y2="110"/><ellipse cx="3094.55" cy="121.9023" fill="none" rx="3" ry="3" style="stroke: #038048; stroke-width: 1.0;"/><text fill="#000000" font-family="sans-serif" font-size="11" lengthAdjust="spacingAndGlyphs" textLength="66" x="3103.55" y="124.2104">enum Color</text><line style="stroke: #A80036; stroke-width: 1.5;" x1="3084.55" x2="3419.55" y1="130.8047" y2="130.8047"/><ellipse cx="3094.55" cy="142.707" fill="#84BE84" rx="3" ry="3" style="stroke: #038048; stroke-width: 1.0;"/><text fill="#000000" font-family="sans-serif" font-size="11" lengthAdjust="spacingAndGlyphs" text-decoration="underline" textLength="308" x="3103.55" y="145.0151">coloredString(CharSequence, LoggerUtil.Color): String</text><line style="stroke: #000000; stroke-width: 1.0;" x1="3103.55" x2="3411.55" y1="147.0151" y2="147.0151"/><ellipse cx="3094.55" cy="155.5117" fill="#84BE84" rx="3" ry="3" style="stroke: #038048; stroke-width: 1.0;"/><text fill="#000000" font-family="sans-serif" font-size="11" lengthAdjust="spacingAndGlyphs" text-decoration="underline" textLength="287" x="3103.55" y="157.8198">infoString(CharSequence, LoggerUtil.Color): String</text><line style="stroke: #000000; stroke-width: 1.0;" x1="3103.55" x2="3390.55" y1="159.8198" y2="159.8198"/><ellipse cx="3094.55" cy="168.3164" fill="#84BE84" rx="3" ry="3" style="stroke: #038048; stroke-width: 1.0;"/><text fill="#000000" font-family="sans-serif" font-size="11" lengthAdjust="spacingAndGlyphs" text-decoration="underline" textLength="311" x="3103.55" y="170.6245">warningString(CharSequence, LoggerUtil.Color): String</text><line style="stroke: #000000; stroke-width: 1.0;" x1="3103.55" x2="3414.55" y1="172.6245" y2="172.6245"/><ellipse cx="3094.55" cy="181.1211" fill="#84BE84" rx="3" ry="3" style="stroke: #038048; stroke-width: 1.0;"/><text fill="#000000" font-family="sans-serif" font-size="11" lengthAdjust="spacingAndGlyphs" text-decoration="underline" textLength="295" x="3103.55" y="183.4292">errorString(CharSequence, LoggerUtil.Color): String</text><line style="stroke: #000000; stroke-width: 1.0;" x1="3103.55" x2="3398.55" y1="185.4292" y2="185.4292"/><!--class MyLogger--><rect fill="#FEFECE" filter="url(#ff3hqczgee7n9)" height="86.4141" id="MyLogger" style="stroke: #A80036; stroke-width: 1.5;" width="130" x="2918.05" y="91"/><ellipse cx="2950.6" cy="107" fill="#ADD1B2" rx="11" ry="11" style="stroke: #A80036; stroke-width: 1.0;"/><path d="M2952.9438,102.6719 L2953.1156,102.75 C2953.3344,102.4375 2953.5375,102.3438 2953.8344,102.3438 C2954.1313,102.3438 2954.4125,102.4844 2954.5688,102.75 C2954.6625,102.9063 2954.6781,103.0313 2954.6781,103.4688 L2954.6781,104.8906 C2954.6781,105.3125 2954.6469,105.5 2954.5375,105.6563 C2954.3656,105.875 2954.1,106.0156 2953.8344,106.0156 C2953.6156,106.0156 2953.3813,105.9063 2953.2406,105.7656 C2953.1,105.6406 2953.0688,105.5156 2953.0063,105.1094 C2952.9125,104.7031 2952.7406,104.4844 2952.2563,104.2031 C2951.7875,103.9531 2951.1781,103.7969 2950.6,103.7969 C2948.8656,103.7969 2947.6156,105.1094 2947.6156,106.8906 L2947.6156,107.9844 C2947.6156,109.6875 2948.9125,110.7813 2950.9594,110.7813 C2951.725,110.7813 2952.4125,110.6563 2952.8344,110.3906 C2953.0219,110.2969 2953.0219,110.2969 2953.475,109.8125 C2953.6625,109.625 2953.8656,109.5469 2954.0844,109.5469 C2954.5531,109.5469 2954.9438,109.9375 2954.9438,110.3906 C2954.9438,110.7813 2954.6156,111.2344 2954.0375,111.6406 C2953.2875,112.1875 2952.1313,112.4844 2950.9125,112.4844 C2948.0219,112.4844 2945.9125,110.5938 2945.9125,108.0156 L2945.9125,106.8906 C2945.9125,104.1719 2947.9125,102.0938 2950.5375,102.0938 C2951.4125,102.0938 2952.0063,102.2344 2952.9438,102.6719 Z "/><text fill="#000000" font-family="sans-serif" font-size="12" lengthAdjust="spacingAndGlyphs" textLength="59" x="2968.5" y="111.1543">MyLogger</text><line style="stroke: #A80036; stroke-width: 1.5;" x1="2919.05" x2="3047.05" y1="123" y2="123"/><line style="stroke: #A80036; stroke-width: 1.5;" x1="2919.05" x2="3047.05" y1="131" y2="131"/><ellipse cx="2929.05" cy="142.9023" fill="#84BE84" rx="3" ry="3" style="stroke: #038048; stroke-width: 1.0;"/><text fill="#000000" font-family="sans-serif" font-size="11" lengthAdjust="spacingAndGlyphs" text-decoration="underline" textLength="80" x="2938.05" y="145.2104">logInfo(String)</text><line style="stroke: #000000; stroke-width: 1.0;" x1="2938.05" x2="3018.05" y1="147.2104" y2="147.2104"/><ellipse cx="2929.05" cy="155.707" fill="#84BE84" rx="3" ry="3" style="stroke: #038048; stroke-width: 1.0;"/><text fill="#000000" font-family="sans-serif" font-size="11" lengthAdjust="spacingAndGlyphs" text-decoration="underline" textLength="88" x="2938.05" y="158.0151">logError(String)</text><line style="stroke: #000000; stroke-width: 1.0;" x1="2938.05" x2="3026.05" y1="160.0151" y2="160.0151"/><ellipse cx="2929.05" cy="168.5117" fill="#84BE84" rx="3" ry="3" style="stroke: #038048; stroke-width: 1.0;"/><text fill="#000000" font-family="sans-serif" font-size="11" lengthAdjust="spacingAndGlyphs" text-decoration="underline" textLength="104" x="2938.05" y="170.8198">logWarning(String)</text><line style="stroke: #000000; stroke-width: 1.0;" x1="2938.05" x2="3042.05" y1="172.8198" y2="172.8198"/><!--class Message--><rect fill="#FEFECE" filter="url(#ff3hqczgee7n9)" height="150.4375" id="Message" style="stroke: #A80036; stroke-width: 1.5;" width="315" x="2546.55" y="269"/><ellipse cx="2671.8" cy="285" fill="#ADD1B2" rx="11" ry="11" style="stroke: #A80036; stroke-width: 1.0;"/><path d="M2674.1438,280.6719 L2674.3156,280.75 C2674.5344,280.4375 2674.7375,280.3438 2675.0344,280.3438 C2675.3313,280.3438 2675.6125,280.4844 2675.7688,280.75 C2675.8625,280.9063 2675.8781,281.0313 2675.8781,281.4688 L2675.8781,282.8906 C2675.8781,283.3125 2675.8469,283.5 2675.7375,283.6563 C2675.5656,283.875 2675.3,284.0156 2675.0344,284.0156 C2674.8156,284.0156 2674.5813,283.9063 2674.4406,283.7656 C2674.3,283.6406 2674.2688,283.5156 2674.2063,283.1094 C2674.1125,282.7031 2673.9406,282.4844 2673.4563,282.2031 C2672.9875,281.9531 2672.3781,281.7969 2671.8,281.7969 C2670.0656,281.7969 2668.8156,283.1094 2668.8156,284.8906 L2668.8156,285.9844 C2668.8156,287.6875 2670.1125,288.7813 2672.1594,288.7813 C2672.925,288.7813 2673.6125,288.6563 2674.0344,288.3906 C2674.2219,288.2969 2674.2219,288.2969 2674.675,287.8125 C2674.8625,287.625 2675.0656,287.5469 2675.2844,287.5469 C2675.7531,287.5469 2676.1438,287.9375 2676.1438,288.3906 C2676.1438,288.7813 2675.8156,289.2344 2675.2375,289.6406 C2674.4875,290.1875 2673.3313,290.4844 2672.1125,290.4844 C2669.2219,290.4844 2667.1125,288.5938 2667.1125,286.0156 L2667.1125,284.8906 C2667.1125,282.1719 2669.1125,280.0938 2671.7375,280.0938 C2672.6125,280.0938 2673.2063,280.2344 2674.1438,280.6719 Z "/><text fill="#000000" font-family="sans-serif" font-size="12" lengthAdjust="spacingAndGlyphs" textLength="56" x="2692.3" y="289.1543">Message</text><line style="stroke: #A80036; stroke-width: 1.5;" x1="2547.55" x2="2860.55" y1="301" y2="301"/><rect fill="none" height="6" style="stroke: #C82930; stroke-width: 1.0;" width="6" x="2554.55" y="309.9023"/><text fill="#000000" font-family="sans-serif" font-size="11" lengthAdjust="spacingAndGlyphs" text-decoration="underline" textLength="86" x="2566.55" y="315.2104">compteurId: int</text><line style="stroke: #000000; stroke-width: 1.0;" x1="2566.55" x2="2652.55" y1="317.2104" y2="317.2104"/><rect fill="none" height="6" style="stroke: #C82930; stroke-width: 1.0;" width="6" x="2554.55" y="322.707"/><text fill="#000000" font-family="sans-serif" font-size="11" lengthAdjust="spacingAndGlyphs" textLength="83" x="2566.55" y="328.0151">idMessage: int</text><rect fill="none" height="6" style="stroke: #C82930; stroke-width: 1.0;" width="6" x="2554.55" y="335.5117"/><text fill="#000000" font-family="sans-serif" font-size="11" lengthAdjust="spacingAndGlyphs" textLength="161" x="2566.55" y="340.8198">typeMessage: TypeMessage</text><rect fill="none" height="6" style="stroke: #C82930; stroke-width: 1.0;" width="6" x="2554.55" y="348.3164"/><text fill="#000000" font-family="sans-serif" font-size="11" lengthAdjust="spacingAndGlyphs" textLength="95" x="2566.55" y="353.6245">recepteur: Agent</text><rect fill="none" height="6" style="stroke: #C82930; stroke-width: 1.0;" width="6" x="2554.55" y="361.1211"/><text fill="#000000" font-family="sans-serif" font-size="11" lengthAdjust="spacingAndGlyphs" textLength="92" x="2566.55" y="366.4292">emetteur: Agent</text><rect fill="none" height="6" style="stroke: #C82930; stroke-width: 1.0;" width="6" x="2554.55" y="373.9258"/><text fill="#000000" font-family="sans-serif" font-size="11" lengthAdjust="spacingAndGlyphs" textLength="136" x="2566.55" y="379.2339">proposition: Proposition</text><rect fill="none" height="6" style="stroke: #C82930; stroke-width: 1.0;" width="6" x="2554.55" y="386.7305"/><text fill="#000000" font-family="sans-serif" font-size="11" lengthAdjust="spacingAndGlyphs" textLength="83" x="2566.55" y="392.0386">traite: boolean</text><line style="stroke: #A80036; stroke-width: 1.5;" x1="2547.55" x2="2860.55" y1="398.6328" y2="398.6328"/><ellipse cx="2557.55" cy="410.5352" fill="#84BE84" rx="3" ry="3" style="stroke: #038048; stroke-width: 1.0;"/><text fill="#000000" font-family="sans-serif" font-size="11" lengthAdjust="spacingAndGlyphs" textLength="289" x="2566.55" y="412.8433">Message(TypeMessage, Agent, Agent, Proposition)</text><!--class Messagerie--><rect fill="#FEFECE" filter="url(#ff3hqczgee7n9)" height="150.4375" id="Messagerie" style="stroke: #A80036; stroke-width: 1.5;" width="275" x="2566.55" y="59"/><ellipse cx="2663.8" cy="75" fill="#ADD1B2" rx="11" ry="11" style="stroke: #A80036; stroke-width: 1.0;"/><path d="M2666.1438,70.6719 L2666.3156,70.75 C2666.5344,70.4375 2666.7375,70.3438 2667.0344,70.3438 C2667.3313,70.3438 2667.6125,70.4844 2667.7688,70.75 C2667.8625,70.9063 2667.8781,71.0313 2667.8781,71.4688 L2667.8781,72.8906 C2667.8781,73.3125 2667.8469,73.5 2667.7375,73.6563 C2667.5656,73.875 2667.3,74.0156 2667.0344,74.0156 C2666.8156,74.0156 2666.5813,73.9063 2666.4406,73.7656 C2666.3,73.6406 2666.2688,73.5156 2666.2063,73.1094 C2666.1125,72.7031 2665.9406,72.4844 2665.4563,72.2031 C2664.9875,71.9531 2664.3781,71.7969 2663.8,71.7969 C2662.0656,71.7969 2660.8156,73.1094 2660.8156,74.8906 L2660.8156,75.9844 C2660.8156,77.6875 2662.1125,78.7813 2664.1594,78.7813 C2664.925,78.7813 2665.6125,78.6563 2666.0344,78.3906 C2666.2219,78.2969 2666.2219,78.2969 2666.675,77.8125 C2666.8625,77.625 2667.0656,77.5469 2667.2844,77.5469 C2667.7531,77.5469 2668.1438,77.9375 2668.1438,78.3906 C2668.1438,78.7813 2667.8156,79.2344 2667.2375,79.6406 C2666.4875,80.1875 2665.3313,80.4844 2664.1125,80.4844 C2661.2219,80.4844 2659.1125,78.5938 2659.1125,76.0156 L2659.1125,74.8906 C2659.1125,72.1719 2661.1125,70.0938 2663.7375,70.0938 C2664.6125,70.0938 2665.2063,70.2344 2666.1438,70.6719 Z "/><text fill="#000000" font-family="sans-serif" font-size="12" lengthAdjust="spacingAndGlyphs" textLength="72" x="2684.3" y="79.1543">Messagerie</text><line style="stroke: #A80036; stroke-width: 1.5;" x1="2567.55" x2="2840.55" y1="91" y2="91"/><rect fill="none" height="6" style="stroke: #C82930; stroke-width: 1.0;" width="6" x="2574.55" y="99.9023"/><text fill="#000000" font-family="sans-serif" font-size="11" lengthAdjust="spacingAndGlyphs" text-decoration="underline" textLength="157" x="2586.55" y="105.2104">messages: List&lt;Message&gt;</text><line style="stroke: #000000; stroke-width: 1.0;" x1="2586.55" x2="2743.55" y1="107.2104" y2="107.2104"/><line style="stroke: #A80036; stroke-width: 1.5;" x1="2567.55" x2="2840.55" y1="111.8047" y2="111.8047"/><rect fill="#F24D5C" height="6" style="stroke: #C82930; stroke-width: 1.0;" width="6" x="2574.55" y="120.707"/><text fill="#000000" font-family="sans-serif" font-size="11" lengthAdjust="spacingAndGlyphs" text-decoration="underline" textLength="195" x="2586.55" y="126.0151">getMessages(int): List&lt;Message&gt;</text><line style="stroke: #000000; stroke-width: 1.0;" x1="2586.55" x2="2781.55" y1="128.0151" y2="128.0151"/><rect fill="#F24D5C" height="6" style="stroke: #C82930; stroke-width: 1.0;" width="6" x="2574.55" y="133.5117"/><text fill="#000000" font-family="sans-serif" font-size="11" lengthAdjust="spacingAndGlyphs" text-decoration="underline" textLength="212" x="2586.55" y="138.8198">getLastMessage(int): List&lt;Message&gt;</text><line style="stroke: #000000; stroke-width: 1.0;" x1="2586.55" x2="2798.55" y1="140.8198" y2="140.8198"/><rect fill="#F24D5C" height="6" style="stroke: #C82930; stroke-width: 1.0;" width="6" x="2574.55" y="146.3164"/><text fill="#000000" font-family="sans-serif" font-size="11" lengthAdjust="spacingAndGlyphs" text-decoration="underline" textLength="129" x="2586.55" y="151.6245">haveMessages(int): int</text><line style="stroke: #000000; stroke-width: 1.0;" x1="2586.55" x2="2715.55" y1="153.6245" y2="153.6245"/><rect fill="#F24D5C" height="6" style="stroke: #C82930; stroke-width: 1.0;" width="6" x="2574.55" y="159.1211"/><text fill="#000000" font-family="sans-serif" font-size="11" lengthAdjust="spacingAndGlyphs" text-decoration="underline" textLength="133" x="2586.55" y="164.4292">addmessage(Message)</text><line style="stroke: #000000; stroke-width: 1.0;" x1="2586.55" x2="2719.55" y1="166.4292" y2="166.4292"/><rect fill="#F24D5C" height="6" style="stroke: #C82930; stroke-width: 1.0;" width="6" x="2574.55" y="171.9258"/><text fill="#000000" font-family="sans-serif" font-size="11" lengthAdjust="spacingAndGlyphs" text-decoration="underline" textLength="145" x="2586.55" y="177.2339">deleteMessage(Message)</text><line style="stroke: #000000; stroke-width: 1.0;" x1="2586.55" x2="2731.55" y1="179.2339" y2="179.2339"/><rect fill="#F24D5C" height="6" style="stroke: #C82930; stroke-width: 1.0;" width="6" x="2574.55" y="184.7305"/><text fill="#000000" font-family="sans-serif" font-size="11" lengthAdjust="spacingAndGlyphs" text-decoration="underline" textLength="249" x="2586.55" y="190.0386">getAncienneProposition(int, int): Proposition</text><line style="stroke: #000000; stroke-width: 1.0;" x1="2586.55" x2="2835.55" y1="192.0386" y2="192.0386"/><rect fill="#F24D5C" height="6" style="stroke: #C82930; stroke-width: 1.0;" width="6" x="2574.55" y="197.5352"/><text fill="#000000" font-family="sans-serif" font-size="11" lengthAdjust="spacingAndGlyphs" text-decoration="underline" textLength="181" x="2586.55" y="202.8433">getMessages(): List&lt;Message&gt;</text><line style="stroke: #000000; stroke-width: 1.0;" x1="2586.55" x2="2767.55" y1="204.8433" y2="204.8433"/><!--class TypeMessage--><rect fill="#FEFECE" filter="url(#ff3hqczgee7n9)" height="99.2188" id="TypeMessage" style="stroke: #A80036; stroke-width: 1.5;" width="145" x="2546.55" y="498.5"/><ellipse cx="2574.15" cy="514.5" fill="#EB937F" rx="11" ry="11" style="stroke: #A80036; stroke-width: 1.0;"/><path d="M2572.4469,515.375 L2572.4469,517.7969 L2576.8063,517.7969 L2576.8063,516.9219 C2576.8063,516.4375 2576.8375,516.2969 2576.9469,516.1406 C2577.1188,515.8906 2577.3844,515.7813 2577.65,515.7813 C2577.9313,515.7813 2578.2125,515.9375 2578.3844,516.1875 C2578.4625,516.3438 2578.4938,516.4844 2578.4938,516.9219 L2578.4938,519.5 L2570.4938,519.5 C2570.1031,519.5 2569.8688,519.4531 2569.7281,519.3281 C2569.5094,519.1719 2569.3688,518.9219 2569.3688,518.6563 C2569.3688,518.3594 2569.525,518.0938 2569.775,517.9219 C2569.9313,517.8125 2570.0875,517.7969 2570.4938,517.7969 L2570.7438,517.7969 L2570.7438,511.2813 L2570.4938,511.2813 C2570.0719,511.2813 2569.8844,511.25 2569.7281,511.1406 C2569.5094,510.9688 2569.3688,510.7188 2569.3688,510.4375 C2569.3688,510.1563 2569.525,509.8594 2569.775,509.7031 C2569.9313,509.6094 2570.0563,509.5938 2570.4938,509.5938 L2578.1188,509.5938 L2578.1188,512.1406 C2578.1188,512.6094 2578.0875,512.75 2577.9781,512.9219 C2577.8063,513.1406 2577.5406,513.2813 2577.275,513.2813 C2576.9938,513.2813 2576.7125,513.125 2576.5406,512.875 C2576.4625,512.7188 2576.4313,512.5469 2576.4313,512.1406 L2576.4313,511.2813 L2572.4469,511.2813 L2572.4469,513.6875 L2573.9,513.6875 L2573.9,513.5625 C2573.9,513.1094 2573.9313,512.9531 2574.0406,512.7813 C2574.2125,512.5625 2574.4781,512.4219 2574.7281,512.4219 C2575.1813,512.4219 2575.4938,512.7344 2575.5563,513.2031 C2575.5719,513.3594 2575.5719,513.4063 2575.5719,513.5625 L2575.5719,515.4844 C2575.5719,515.9375 2575.5406,516.0938 2575.4156,516.25 C2575.2594,516.4688 2574.9938,516.6094 2574.7438,516.6094 C2574.4469,516.6094 2574.1656,516.4531 2574.0094,516.2031 C2573.9313,516.0469 2573.9,515.8906 2573.9,515.4844 L2573.9,515.375 Z "/><text fill="#000000" font-family="sans-serif" font-size="12" lengthAdjust="spacingAndGlyphs" textLength="85" x="2590.95" y="518.6543">TypeMessage</text><line style="stroke: #A80036; stroke-width: 1.5;" x1="2547.55" x2="2690.55" y1="530.5" y2="530.5"/><text fill="#000000" font-family="sans-serif" font-size="11" lengthAdjust="spacingAndGlyphs" textLength="56" x="2552.55" y="544.7104">REQUETE,</text><text fill="#000000" font-family="sans-serif" font-size="11" lengthAdjust="spacingAndGlyphs" textLength="81" x="2552.55" y="557.5151">PROPOSITION,</text><text fill="#000000" font-family="sans-serif" font-size="11" lengthAdjust="spacingAndGlyphs" textLength="133" x="2552.55" y="570.3198">CONTRE_PROPOSITION,</text><text fill="#000000" font-family="sans-serif" font-size="11" lengthAdjust="spacingAndGlyphs" textLength="22" x="2552.55" y="583.1245">ACK</text><line style="stroke: #A80036; stroke-width: 1.5;" x1="2547.55" x2="2690.55" y1="589.7188" y2="589.7188"/><!--class Concession--><rect fill="#FEFECE" filter="url(#ff3hqczgee7n9)" height="60.8047" id="Concession" style="stroke: #A80036; stroke-width: 1.5;" width="160" x="4154.05" y="103.5"/><ellipse cx="4194.25" cy="119.5" fill="#ADD1B2" rx="11" ry="11" style="stroke: #A80036; stroke-width: 1.0;"/><path d="M4196.5938,115.1719 L4196.7656,115.25 C4196.9844,114.9375 4197.1875,114.8438 4197.4844,114.8438 C4197.7813,114.8438 4198.0625,114.9844 4198.2188,115.25 C4198.3125,115.4063 4198.3281,115.5313 4198.3281,115.9688 L4198.3281,117.3906 C4198.3281,117.8125 4198.2969,118 4198.1875,118.1563 C4198.0156,118.375 4197.75,118.5156 4197.4844,118.5156 C4197.2656,118.5156 4197.0313,118.4063 4196.8906,118.2656 C4196.75,118.1406 4196.7188,118.0156 4196.6563,117.6094 C4196.5625,117.2031 4196.3906,116.9844 4195.9063,116.7031 C4195.4375,116.4531 4194.8281,116.2969 4194.25,116.2969 C4192.5156,116.2969 4191.2656,117.6094 4191.2656,119.3906 L4191.2656,120.4844 C4191.2656,122.1875 4192.5625,123.2813 4194.6094,123.2813 C4195.375,123.2813 4196.0625,123.1563 4196.4844,122.8906 C4196.6719,122.7969 4196.6719,122.7969 4197.125,122.3125 C4197.3125,122.125 4197.5156,122.0469 4197.7344,122.0469 C4198.2031,122.0469 4198.5938,122.4375 4198.5938,122.8906 C4198.5938,123.2813 4198.2656,123.7344 4197.6875,124.1406 C4196.9375,124.6875 4195.7813,124.9844 4194.5625,124.9844 C4191.6719,124.9844 4189.5625,123.0938 4189.5625,120.5156 L4189.5625,119.3906 C4189.5625,116.6719 4191.5625,114.5938 4194.1875,114.5938 C4195.0625,114.5938 4195.6563,114.7344 4196.5938,115.1719 Z "/><text fill="#000000" font-family="sans-serif" font-size="12" lengthAdjust="spacingAndGlyphs" textLength="72" x="4213.85" y="123.6543">Concession</text><line style="stroke: #A80036; stroke-width: 1.5;" x1="4155.05" x2="4313.05" y1="135.5" y2="135.5"/><line style="stroke: #A80036; stroke-width: 1.5;" x1="4155.05" x2="4313.05" y1="143.5" y2="143.5"/><ellipse cx="4165.05" cy="155.4023" fill="#84BE84" rx="3" ry="3" style="stroke: #038048; stroke-width: 1.0;"/><text fill="#000000" font-family="sans-serif" font-size="11" lengthAdjust="spacingAndGlyphs" textLength="134" x="4174.05" y="157.7104">Concession(double, int)</text><!--class NoRules--><rect fill="#FEFECE" filter="url(#ff3hqczgee7n9)" height="60.8047" id="NoRules" style="stroke: #A80036; stroke-width: 1.5;" width="83" x="4035.55" y="103.5"/><ellipse cx="4050.55" cy="119.5" fill="#ADD1B2" rx="11" ry="11" style="stroke: #A80036; stroke-width: 1.0;"/><path d="M4052.8938,115.1719 L4053.0656,115.25 C4053.2844,114.9375 4053.4875,114.8438 4053.7844,114.8438 C4054.0813,114.8438 4054.3625,114.9844 4054.5188,115.25 C4054.6125,115.4063 4054.6281,115.5313 4054.6281,115.9688 L4054.6281,117.3906 C4054.6281,117.8125 4054.5969,118 4054.4875,118.1563 C4054.3156,118.375 4054.05,118.5156 4053.7844,118.5156 C4053.5656,118.5156 4053.3313,118.4063 4053.1906,118.2656 C4053.05,118.1406 4053.0188,118.0156 4052.9563,117.6094 C4052.8625,117.2031 4052.6906,116.9844 4052.2063,116.7031 C4051.7375,116.4531 4051.1281,116.2969 4050.55,116.2969 C4048.8156,116.2969 4047.5656,117.6094 4047.5656,119.3906 L4047.5656,120.4844 C4047.5656,122.1875 4048.8625,123.2813 4050.9094,123.2813 C4051.675,123.2813 4052.3625,123.1563 4052.7844,122.8906 C4052.9719,122.7969 4052.9719,122.7969 4053.425,122.3125 C4053.6125,122.125 4053.8156,122.0469 4054.0344,122.0469 C4054.5031,122.0469 4054.8938,122.4375 4054.8938,122.8906 C4054.8938,123.2813 4054.5656,123.7344 4053.9875,124.1406 C4053.2375,124.6875 4052.0813,124.9844 4050.8625,124.9844 C4047.9719,124.9844 4045.8625,123.0938 4045.8625,120.5156 L4045.8625,119.3906 C4045.8625,116.6719 4047.8625,114.5938 4050.4875,114.5938 C4051.3625,114.5938 4051.9563,114.7344 4052.8938,115.1719 Z "/><text fill="#000000" font-family="sans-serif" font-size="12" lengthAdjust="spacingAndGlyphs" textLength="51" x="4064.55" y="123.6543">NoRules</text><line style="stroke: #A80036; stroke-width: 1.5;" x1="4036.55" x2="4117.55" y1="135.5" y2="135.5"/><line style="stroke: #A80036; stroke-width: 1.5;" x1="4036.55" x2="4117.55" y1="143.5" y2="143.5"/><ellipse cx="4046.55" cy="155.4023" fill="#84BE84" rx="3" ry="3" style="stroke: #038048; stroke-width: 1.0;"/><text fill="#000000" font-family="sans-serif" font-size="11" lengthAdjust="spacingAndGlyphs" textLength="54" x="4055.55" y="157.7104">NoRules()</text><!--class Regle--><rect fill="#FEFECE" filter="url(#ff3hqczgee7n9)" height="86.4141" id="Regle" style="stroke: #A80036; stroke-width: 1.5;" width="200" x="4349.05" y="91"/><ellipse cx="4427.3" cy="107" fill="#ADD1B2" rx="11" ry="11" style="stroke: #A80036; stroke-width: 1.0;"/><path d="M4429.6438,102.6719 L4429.8156,102.75 C4430.0344,102.4375 4430.2375,102.3438 4430.5344,102.3438 C4430.8313,102.3438 4431.1125,102.4844 4431.2688,102.75 C4431.3625,102.9063 4431.3781,103.0313 4431.3781,103.4688 L4431.3781,104.8906 C4431.3781,105.3125 4431.3469,105.5 4431.2375,105.6563 C4431.0656,105.875 4430.8,106.0156 4430.5344,106.0156 C4430.3156,106.0156 4430.0813,105.9063 4429.9406,105.7656 C4429.8,105.6406 4429.7688,105.5156 4429.7063,105.1094 C4429.6125,104.7031 4429.4406,104.4844 4428.9563,104.2031 C4428.4875,103.9531 4427.8781,103.7969 4427.3,103.7969 C4425.5656,103.7969 4424.3156,105.1094 4424.3156,106.8906 L4424.3156,107.9844 C4424.3156,109.6875 4425.6125,110.7813 4427.6594,110.7813 C4428.425,110.7813 4429.1125,110.6563 4429.5344,110.3906 C4429.7219,110.2969 4429.7219,110.2969 4430.175,109.8125 C4430.3625,109.625 4430.5656,109.5469 4430.7844,109.5469 C4431.2531,109.5469 4431.6438,109.9375 4431.6438,110.3906 C4431.6438,110.7813 4431.3156,111.2344 4430.7375,111.6406 C4429.9875,112.1875 4428.8313,112.4844 4427.6125,112.4844 C4424.7219,112.4844 4422.6125,110.5938 4422.6125,108.0156 L4422.6125,106.8906 C4422.6125,104.1719 4424.6125,102.0938 4427.2375,102.0938 C4428.1125,102.0938 4428.7063,102.2344 4429.6438,102.6719 Z "/><text fill="#000000" font-family="sans-serif" font-size="12" lengthAdjust="spacingAndGlyphs" textLength="35" x="4447.8" y="111.1543">Regle</text><line style="stroke: #A80036; stroke-width: 1.5;" x1="4350.05" x2="4548.05" y1="123" y2="123"/><rect fill="none" height="6" style="stroke: #C82930; stroke-width: 1.0;" width="6" x="4357.05" y="131.9023"/><text fill="#000000" font-family="sans-serif" font-size="11" lengthAdjust="spacingAndGlyphs" text-decoration="underline" textLength="134" x="4369.05" y="137.2104">tempsNegociation: long</text><line style="stroke: #000000; stroke-width: 1.0;" x1="4369.05" x2="4503.05" y1="139.2104" y2="139.2104"/><rect fill="none" height="6" style="stroke: #C82930; stroke-width: 1.0;" width="6" x="4357.05" y="144.707"/><text fill="#000000" font-family="sans-serif" font-size="11" lengthAdjust="spacingAndGlyphs" text-decoration="underline" textLength="174" x="4369.05" y="150.0151">regleProtocole: RegleProtocole</text><line style="stroke: #000000; stroke-width: 1.0;" x1="4369.05" x2="4543.05" y1="152.0151" y2="152.0151"/><rect fill="none" height="6" style="stroke: #C82930; stroke-width: 1.0;" width="6" x="4357.05" y="157.5117"/><text fill="#000000" font-family="sans-serif" font-size="11" lengthAdjust="spacingAndGlyphs" text-decoration="underline" textLength="122" x="4369.05" y="162.8198">nbPropositionMax: int</text><line style="stroke: #000000; stroke-width: 1.0;" x1="4369.05" x2="4491.05" y1="164.8198" y2="164.8198"/><line style="stroke: #A80036; stroke-width: 1.5;" x1="4350.05" x2="4548.05" y1="169.4141" y2="169.4141"/><!--class RegleProtocole--><rect fill="#FEFECE" filter="url(#ff3hqczgee7n9)" height="99.2188" id="RegleProtocole" style="stroke: #A80036; stroke-width: 1.5;" width="178" x="4145.05" y="294.5"/><ellipse cx="4183.45" cy="310.5" fill="#A9DCDF" rx="11" ry="11" style="stroke: #A80036; stroke-width: 1.0;"/><path d="M4185.0281,312.3125 L4180.9813,312.3125 L4180.5906,313.2969 L4180.9813,313.2969 C4181.4344,313.2969 4181.575,313.3281 4181.7469,313.4531 C4181.9656,313.625 4182.0906,313.875 4182.0906,314.1563 C4182.0906,314.4375 4181.95,314.7344 4181.6844,314.875 C4181.5594,314.9688 4181.3406,315 4180.9813,315 L4178.7156,315 C4177.9656,315 4177.5906,314.7188 4177.5906,314.1563 C4177.5906,313.8594 4177.7469,313.5781 4177.9969,313.4219 C4178.1531,313.3125 4178.3094,313.2969 4178.7313,313.2969 L4181.3719,306.7813 L4180.2938,306.7813 C4179.8563,306.7813 4179.6844,306.75 4179.5125,306.6406 C4179.2938,306.4688 4179.1531,306.2188 4179.1531,305.9375 C4179.1531,305.6563 4179.3094,305.375 4179.5594,305.2031 C4179.7156,305.1094 4179.8406,305.0938 4180.2938,305.0938 L4183.9656,305.0938 L4187.3563,313.2969 C4187.825,313.2969 4187.9813,313.3281 4188.1531,313.4688 C4188.3719,313.625 4188.5125,313.875 4188.5125,314.1563 C4188.5125,314.4375 4188.3563,314.7344 4188.1063,314.875 C4187.9656,314.9688 4187.7469,315 4187.3875,315 L4185.0281,315 C4184.6063,315 4184.4031,314.9531 4184.2625,314.8281 C4184.0438,314.6719 4183.9031,314.4219 4183.9031,314.1563 C4183.9031,313.8594 4184.0594,313.5781 4184.3094,313.4219 C4184.4656,313.3125 4184.575,313.2969 4185.0281,313.2969 L4185.4188,313.2969 Z M4184.325,310.6094 L4182.9969,307.3438 L4181.6531,310.6094 Z "/><text fill="#000000" font-family="sans-serif" font-size="12" font-style="italic" lengthAdjust="spacingAndGlyphs" textLength="94" x="4202.65" y="314.6543">RegleProtocole</text><line style="stroke: #A80036; stroke-width: 1.5;" x1="4146.05" x2="4322.05" y1="326.5" y2="326.5"/><polygon fill="none" points="4156.05,333.4023,4160.05,337.4023,4156.05,341.4023,4152.05,337.4023" style="stroke: #B38D22; stroke-width: 1.0;"/><text fill="#000000" font-family="sans-serif" font-size="11" lengthAdjust="spacingAndGlyphs" textLength="73" x="4165.05" y="340.7104">seuil: double</text><polygon fill="none" points="4156.05,346.207,4160.05,350.207,4156.05,354.207,4152.05,350.207" style="stroke: #B38D22; stroke-width: 1.0;"/><text fill="#000000" font-family="sans-serif" font-size="11" lengthAdjust="spacingAndGlyphs" textLength="48" x="4165.05" y="353.5151">ratio: int</text><line style="stroke: #A80036; stroke-width: 1.5;" x1="4146.05" x2="4322.05" y1="360.1094" y2="360.1094"/><ellipse cx="4156.05" cy="372.0117" fill="#84BE84" rx="3" ry="3" style="stroke: #038048; stroke-width: 1.0;"/><text fill="#000000" font-family="sans-serif" font-size="11" lengthAdjust="spacingAndGlyphs" textLength="152" x="4165.05" y="374.3198">RegleProtocole(double, int)</text><ellipse cx="4156.05" cy="384.8164" fill="#84BE84" rx="3" ry="3" style="stroke: #038048; stroke-width: 1.0;"/><text fill="#000000" font-family="sans-serif" font-size="11" lengthAdjust="spacingAndGlyphs" textLength="92" x="4165.05" y="387.1245">RegleProtocole()</text><!--class Strategie--><rect fill="#FEFECE" filter="url(#ff3hqczgee7n9)" height="124.8281" id="Strategie" style="stroke: #A80036; stroke-width: 1.5;" width="416" x="955.047" y="689.5"/><ellipse cx="1129.797" cy="705.5" fill="#A9DCDF" rx="11" ry="11" style="stroke: #A80036; stroke-width: 1.0;"/><path d="M1131.3751,707.3125 L1127.3283,707.3125 L1126.9376,708.2969 L1127.3283,708.2969 C1127.7814,708.2969 1127.922,708.3281 1128.0939,708.4531 C1128.3126,708.625 1128.4376,708.875 1128.4376,709.1563 C1128.4376,709.4375 1128.297,709.7344 1128.0314,709.875 C1127.9064,709.9688 1127.6876,710 1127.3283,710 L1125.0626,710 C1124.3126,710 1123.9376,709.7188 1123.9376,709.1563 C1123.9376,708.8594 1124.0939,708.5781 1124.3439,708.4219 C1124.5001,708.3125 1124.6564,708.2969 1125.0783,708.2969 L1127.7189,701.7813 L1126.6408,701.7813 C1126.2033,701.7813 1126.0314,701.75 1125.8595,701.6406 C1125.6408,701.4688 1125.5001,701.2188 1125.5001,700.9375 C1125.5001,700.6563 1125.6564,700.375 1125.9064,700.2031 C1126.0626,700.1094 1126.1876,700.0938 1126.6408,700.0938 L1130.3126,700.0938 L1133.7033,708.2969 C1134.172,708.2969 1134.3283,708.3281 1134.5001,708.4688 C1134.7189,708.625 1134.8595,708.875 1134.8595,709.1563 C1134.8595,709.4375 1134.7033,709.7344 1134.4533,709.875 C1134.3126,709.9688 1134.0939,710 1133.7345,710 L1131.3751,710 C1130.9533,710 1130.7501,709.9531 1130.6095,709.8281 C1130.3908,709.6719 1130.2501,709.4219 1130.2501,709.1563 C1130.2501,708.8594 1130.4064,708.5781 1130.6564,708.4219 C1130.8126,708.3125 1130.922,708.2969 1131.3751,708.2969 L1131.7658,708.2969 Z M1130.672,705.6094 L1129.3439,702.3438 L1128.0001,705.6094 Z "/><text fill="#000000" font-family="sans-serif" font-size="12" font-style="italic" lengthAdjust="spacingAndGlyphs" textLength="58" x="1150.297" y="709.6543">Strategie</text><line style="stroke: #A80036; stroke-width: 1.5;" x1="956.047" x2="1370.047" y1="721.5" y2="721.5"/><polygon fill="none" points="966.047,728.4023,970.047,732.4023,966.047,736.4023,962.047,732.4023" style="stroke: #B38D22; stroke-width: 1.0;"/><text fill="#000000" font-family="sans-serif" font-size="11" lengthAdjust="spacingAndGlyphs" textLength="164" x="975.047" y="735.7104">preferenceAgent: Preference</text><polygon fill="none" points="966.047,741.207,970.047,745.207,966.047,749.207,962.047,745.207" style="stroke: #B38D22; stroke-width: 1.0;"/><text fill="#000000" font-family="sans-serif" font-size="11" lengthAdjust="spacingAndGlyphs" textLength="78" x="975.047" y="748.5151">alea: Random</text><line style="stroke: #A80036; stroke-width: 1.5;" x1="956.047" x2="1370.047" y1="755.1094" y2="755.1094"/><polygon fill="#FFFF44" points="966.047,762.0117,970.047,766.0117,966.047,770.0117,962.047,766.0117" style="stroke: #B38D22; stroke-width: 1.0;"/><text fill="#000000" font-family="sans-serif" font-size="11" font-style="italic" lengthAdjust="spacingAndGlyphs" textLength="383" x="975.047" y="769.3198">contreProposition(Proposition, Proposition, Proposition): Proposition</text><polygon fill="#FFFF44" points="966.047,774.8164,970.047,778.8164,966.047,782.8164,962.047,778.8164" style="stroke: #B38D22; stroke-width: 1.0;"/><text fill="#000000" font-family="sans-serif" font-size="11" font-style="italic" lengthAdjust="spacingAndGlyphs" textLength="368" x="975.047" y="782.1245">accepter(Proposition, Proposition, Proposition, boolean): boolean</text><polygon fill="#FFFF44" points="966.047,787.6211,970.047,791.6211,966.047,795.6211,962.047,791.6211" style="stroke: #B38D22; stroke-width: 1.0;"/><text fill="#000000" font-family="sans-serif" font-size="11" font-style="italic" lengthAdjust="spacingAndGlyphs" textLength="360" x="975.047" y="794.9292">refuser(Proposition, Proposition, Proposition, boolean): boolean</text><ellipse cx="966.047" cy="805.4258" fill="#84BE84" rx="3" ry="3" style="stroke: #038048; stroke-width: 1.0;"/><text fill="#000000" font-family="sans-serif" font-size="11" lengthAdjust="spacingAndGlyphs" textLength="390" x="975.047" y="807.7339">reflexion(Proposition, Proposition, Proposition, boolean): Proposition</text><!--class StrategieNaiveFour--><rect fill="#FEFECE" filter="url(#ff3hqczgee7n9)" height="86.4141" id="StrategieNaiveFour" style="stroke: #A80036; stroke-width: 1.5;" width="414" x="506.047" y="709"/><ellipse cx="648.797" cy="725" fill="#ADD1B2" rx="11" ry="11" style="stroke: #A80036; stroke-width: 1.0;"/><path d="M651.1408,720.6719 L651.3126,720.75 C651.5314,720.4375 651.7345,720.3438 652.0314,720.3438 C652.3283,720.3438 652.6095,720.4844 652.7658,720.75 C652.8595,720.9063 652.8751,721.0313 652.8751,721.4688 L652.8751,722.8906 C652.8751,723.3125 652.8439,723.5 652.7345,723.6563 C652.5626,723.875 652.297,724.0156 652.0314,724.0156 C651.8126,724.0156 651.5783,723.9063 651.4376,723.7656 C651.297,723.6406 651.2658,723.5156 651.2033,723.1094 C651.1095,722.7031 650.9376,722.4844 650.4533,722.2031 C649.9845,721.9531 649.3751,721.7969 648.797,721.7969 C647.0626,721.7969 645.8126,723.1094 645.8126,724.8906 L645.8126,725.9844 C645.8126,727.6875 647.1095,728.7813 649.1564,728.7813 C649.922,728.7813 650.6095,728.6563 651.0314,728.3906 C651.2189,728.2969 651.2189,728.2969 651.672,727.8125 C651.8595,727.625 652.0626,727.5469 652.2814,727.5469 C652.7501,727.5469 653.1408,727.9375 653.1408,728.3906 C653.1408,728.7813 652.8126,729.2344 652.2345,729.6406 C651.4845,730.1875 650.3283,730.4844 649.1095,730.4844 C646.2189,730.4844 644.1095,728.5938 644.1095,726.0156 L644.1095,724.8906 C644.1095,722.1719 646.1095,720.0938 648.7345,720.0938 C649.6095,720.0938 650.2033,720.2344 651.1408,720.6719 Z "/><text fill="#000000" font-family="sans-serif" font-size="12" lengthAdjust="spacingAndGlyphs" textLength="120" x="669.297" y="729.1543">StrategieNaiveFour</text><line style="stroke: #A80036; stroke-width: 1.5;" x1="507.047" x2="919.047" y1="741" y2="741"/><line style="stroke: #A80036; stroke-width: 1.5;" x1="507.047" x2="919.047" y1="749" y2="749"/><polygon fill="#FFFF44" points="517.047,755.9023,521.047,759.9023,517.047,763.9023,513.047,759.9023" style="stroke: #B38D22; stroke-width: 1.0;"/><text fill="#000000" font-family="sans-serif" font-size="11" lengthAdjust="spacingAndGlyphs" textLength="388" x="526.047" y="763.2104">contreProposition(Proposition, Proposition, Proposition): Proposition</text><polygon fill="#FFFF44" points="517.047,768.707,521.047,772.707,517.047,776.707,513.047,772.707" style="stroke: #B38D22; stroke-width: 1.0;"/><text fill="#000000" font-family="sans-serif" font-size="11" lengthAdjust="spacingAndGlyphs" textLength="371" x="526.047" y="776.0151">accepter(Proposition, Proposition, Proposition, boolean): boolean</text><polygon fill="#FFFF44" points="517.047,781.5117,521.047,785.5117,517.047,789.5117,513.047,785.5117" style="stroke: #B38D22; stroke-width: 1.0;"/><text fill="#000000" font-family="sans-serif" font-size="11" lengthAdjust="spacingAndGlyphs" textLength="364" x="526.047" y="788.8198">refuser(Proposition, Proposition, Proposition, boolean): boolean</text><!--class StrategieNaiveNego--><rect fill="#FEFECE" filter="url(#ff3hqczgee7n9)" height="86.4141" id="StrategieNaiveNego" style="stroke: #A80036; stroke-width: 1.5;" width="414" x="57.0472" y="709"/><ellipse cx="197.2972" cy="725" fill="#ADD1B2" rx="11" ry="11" style="stroke: #A80036; stroke-width: 1.0;"/><path d="M199.641,720.6719 L199.8128,720.75 C200.0316,720.4375 200.2347,720.3438 200.5316,720.3438 C200.8285,720.3438 201.1097,720.4844 201.266,720.75 C201.3597,720.9063 201.3753,721.0313 201.3753,721.4688 L201.3753,722.8906 C201.3753,723.3125 201.3441,723.5 201.2347,723.6563 C201.0628,723.875 200.7972,724.0156 200.5316,724.0156 C200.3128,724.0156 200.0785,723.9063 199.9378,723.7656 C199.7972,723.6406 199.766,723.5156 199.7035,723.1094 C199.6097,722.7031 199.4378,722.4844 198.9535,722.2031 C198.4847,721.9531 197.8753,721.7969 197.2972,721.7969 C195.5628,721.7969 194.3128,723.1094 194.3128,724.8906 L194.3128,725.9844 C194.3128,727.6875 195.6097,728.7813 197.6566,728.7813 C198.4222,728.7813 199.1097,728.6563 199.5316,728.3906 C199.7191,728.2969 199.7191,728.2969 200.1722,727.8125 C200.3597,727.625 200.5628,727.5469 200.7816,727.5469 C201.2503,727.5469 201.641,727.9375 201.641,728.3906 C201.641,728.7813 201.3128,729.2344 200.7347,729.6406 C199.9847,730.1875 198.8285,730.4844 197.6097,730.4844 C194.7191,730.4844 192.6097,728.5938 192.6097,726.0156 L192.6097,724.8906 C192.6097,722.1719 194.6097,720.0938 197.2347,720.0938 C198.1097,720.0938 198.7035,720.2344 199.641,720.6719 Z "/><text fill="#000000" font-family="sans-serif" font-size="12" lengthAdjust="spacingAndGlyphs" textLength="125" x="217.7972" y="729.1543">StrategieNaiveNego</text><line style="stroke: #A80036; stroke-width: 1.5;" x1="58.0472" x2="470.0472" y1="741" y2="741"/><line style="stroke: #A80036; stroke-width: 1.5;" x1="58.0472" x2="470.0472" y1="749" y2="749"/><polygon fill="#FFFF44" points="68.0472,755.9023,72.0472,759.9023,68.0472,763.9023,64.0472,759.9023" style="stroke: #B38D22; stroke-width: 1.0;"/><text fill="#000000" font-family="sans-serif" font-size="11" lengthAdjust="spacingAndGlyphs" textLength="388" x="77.0472" y="763.2104">contreProposition(Proposition, Proposition, Proposition): Proposition</text><polygon fill="#FFFF44" points="68.0472,768.707,72.0472,772.707,68.0472,776.707,64.0472,772.707" style="stroke: #B38D22; stroke-width: 1.0;"/><text fill="#000000" font-family="sans-serif" font-size="11" lengthAdjust="spacingAndGlyphs" textLength="371" x="77.0472" y="776.0151">accepter(Proposition, Proposition, Proposition, boolean): boolean</text><polygon fill="#FFFF44" points="68.0472,781.5117,72.0472,785.5117,68.0472,789.5117,64.0472,785.5117" style="stroke: #B38D22; stroke-width: 1.0;"/><text fill="#000000" font-family="sans-serif" font-size="11" lengthAdjust="spacingAndGlyphs" textLength="364" x="77.0472" y="788.8198">refuser(Proposition, Proposition, Proposition, boolean): boolean</text><!--class Runnable--><rect fill="#FEFECE" filter="url(#ff3hqczgee7n9)" height="48" id="Runnable" style="stroke: #A80036; stroke-width: 1.5;" width="91" x="2522.55" y="919"/><ellipse cx="2537.55" cy="935" fill="#B4A7E5" rx="11" ry="11" style="stroke: #A80036; stroke-width: 1.0;"/><path d="M2538.5031,931.7813 L2538.5031,938.2969 L2540.2219,938.2969 C2540.675,938.2969 2540.8156,938.3281 2540.9875,938.4531 C2541.2219,938.625 2541.3313,938.875 2541.3313,939.1563 C2541.3313,939.7188 2540.9719,940 2540.2219,940 L2535.0813,940 C2534.675,940 2534.4719,939.9531 2534.3156,939.8281 C2534.0969,939.6719 2533.9563,939.4063 2533.9563,939.1563 C2533.9563,938.8594 2534.1125,938.5781 2534.3625,938.4219 C2534.5188,938.3125 2534.6438,938.2969 2535.0813,938.2969 L2536.8,938.2969 L2536.8,931.7813 L2535.0813,931.7813 C2534.6594,931.7813 2534.4719,931.75 2534.3156,931.6406 C2534.0969,931.4688 2533.9563,931.2188 2533.9563,930.9375 C2533.9563,930.6563 2534.1125,930.3594 2534.3625,930.2031 C2534.5188,930.1094 2534.6438,930.0938 2535.0813,930.0938 L2540.2219,930.0938 C2540.675,930.0938 2540.8156,930.125 2540.9875,930.2344 C2541.2219,930.4063 2541.3313,930.6719 2541.3313,930.9375 C2541.3313,931.2344 2541.1906,931.5156 2540.925,931.6719 C2540.8,931.75 2540.6125,931.7813 2540.2219,931.7813 Z "/><text fill="#000000" font-family="sans-serif" font-size="12" font-style="italic" lengthAdjust="spacingAndGlyphs" textLength="59" x="2551.55" y="939.1543">Runnable</text><line style="stroke: #A80036; stroke-width: 1.5;" x1="2523.55" x2="2612.55" y1="951" y2="951"/><line style="stroke: #A80036; stroke-width: 1.5;" x1="2523.55" x2="2612.55" y1="959" y2="959"/><!--class Compagnie--><rect fill="#FEFECE" filter="url(#ff3hqczgee7n9)" height="99.2188" id="Compagnie" style="stroke: #A80036; stroke-width: 1.5;" width="123" x="1976.55" y="1059"/><ellipse cx="2001" cy="1075" fill="#EB937F" rx="11" ry="11" style="stroke: #A80036; stroke-width: 1.0;"/><path d="M1999.2969,1075.875 L1999.2969,1078.2969 L2003.6563,1078.2969 L2003.6563,1077.4219 C2003.6563,1076.9375 2003.6875,1076.7969 2003.7969,1076.6406 C2003.9688,1076.3906 2004.2344,1076.2813 2004.5,1076.2813 C2004.7813,1076.2813 2005.0625,1076.4375 2005.2344,1076.6875 C2005.3125,1076.8438 2005.3438,1076.9844 2005.3438,1077.4219 L2005.3438,1080 L1997.3438,1080 C1996.9531,1080 1996.7188,1079.9531 1996.5781,1079.8281 C1996.3594,1079.6719 1996.2188,1079.4219 1996.2188,1079.1563 C1996.2188,1078.8594 1996.375,1078.5938 1996.625,1078.4219 C1996.7813,1078.3125 1996.9375,1078.2969 1997.3438,1078.2969 L1997.5938,1078.2969 L1997.5938,1071.7813 L1997.3438,1071.7813 C1996.9219,1071.7813 1996.7344,1071.75 1996.5781,1071.6406 C1996.3594,1071.4688 1996.2188,1071.2188 1996.2188,1070.9375 C1996.2188,1070.6563 1996.375,1070.3594 1996.625,1070.2031 C1996.7813,1070.1094 1996.9063,1070.0938 1997.3438,1070.0938 L2004.9688,1070.0938 L2004.9688,1072.6406 C2004.9688,1073.1094 2004.9375,1073.25 2004.8281,1073.4219 C2004.6563,1073.6406 2004.3906,1073.7813 2004.125,1073.7813 C2003.8438,1073.7813 2003.5625,1073.625 2003.3906,1073.375 C2003.3125,1073.2188 2003.2813,1073.0469 2003.2813,1072.6406 L2003.2813,1071.7813 L1999.2969,1071.7813 L1999.2969,1074.1875 L2000.75,1074.1875 L2000.75,1074.0625 C2000.75,1073.6094 2000.7813,1073.4531 2000.8906,1073.2813 C2001.0625,1073.0625 2001.3281,1072.9219 2001.5781,1072.9219 C2002.0313,1072.9219 2002.3438,1073.2344 2002.4063,1073.7031 C2002.4219,1073.8594 2002.4219,1073.9063 2002.4219,1074.0625 L2002.4219,1075.9844 C2002.4219,1076.4375 2002.3906,1076.5938 2002.2656,1076.75 C2002.1094,1076.9688 2001.8438,1077.1094 2001.5938,1077.1094 C2001.2969,1077.1094 2001.0156,1076.9531 2000.8594,1076.7031 C2000.7813,1076.5469 2000.75,1076.3906 2000.75,1075.9844 L2000.75,1075.875 Z "/><text fill="#000000" font-family="sans-serif" font-size="12" lengthAdjust="spacingAndGlyphs" textLength="70" x="2017.1" y="1079.1543">Compagnie</text><line style="stroke: #A80036; stroke-width: 1.5;" x1="1977.55" x2="2098.55" y1="1091" y2="1091"/><text fill="#000000" font-family="sans-serif" font-size="11" lengthAdjust="spacingAndGlyphs" textLength="70" x="1982.55" y="1105.2104">AIR_FRANCE,</text><text fill="#000000" font-family="sans-serif" font-size="11" lengthAdjust="spacingAndGlyphs" textLength="111" x="1982.55" y="1118.0151">BRUSSELS_AIRLINE,</text><text fill="#000000" font-family="sans-serif" font-size="11" lengthAdjust="spacingAndGlyphs" textLength="109" x="1982.55" y="1130.8198">ROYAL_AIR_MAROC,</text><text fill="#000000" font-family="sans-serif" font-size="11" lengthAdjust="spacingAndGlyphs" textLength="78" x="1982.55" y="1143.6245">USA_AIRLINES</text><line style="stroke: #A80036; stroke-width: 1.5;" x1="1977.55" x2="2098.55" y1="1150.2188" y2="1150.2188"/><!--class StrategieNegociateur--><rect fill="#FEFECE" filter="url(#ff3hqczgee7n9)" height="73.6094" id="StrategieNegociateur" style="stroke: #A80036; stroke-width: 1.5;" width="187" x="40.5472" y="906"/><ellipse cx="64.5472" cy="922" fill="#A9DCDF" rx="11" ry="11" style="stroke: #A80036; stroke-width: 1.0;"/><path d="M66.1253,923.8125 L62.0785,923.8125 L61.6878,924.7969 L62.0785,924.7969 C62.5316,924.7969 62.6722,924.8281 62.8441,924.9531 C63.0628,925.125 63.1878,925.375 63.1878,925.6563 C63.1878,925.9375 63.0472,926.2344 62.7816,926.375 C62.6566,926.4688 62.4378,926.5 62.0785,926.5 L59.8128,926.5 C59.0628,926.5 58.6878,926.2188 58.6878,925.6563 C58.6878,925.3594 58.8441,925.0781 59.0941,924.9219 C59.2503,924.8125 59.4066,924.7969 59.8285,924.7969 L62.4691,918.2813 L61.391,918.2813 C60.9535,918.2813 60.7816,918.25 60.6097,918.1406 C60.391,917.9688 60.2503,917.7188 60.2503,917.4375 C60.2503,917.1563 60.4066,916.875 60.6566,916.7031 C60.8128,916.6094 60.9378,916.5938 61.391,916.5938 L65.0628,916.5938 L68.4535,924.7969 C68.9222,924.7969 69.0785,924.8281 69.2503,924.9688 C69.4691,925.125 69.6097,925.375 69.6097,925.6563 C69.6097,925.9375 69.4535,926.2344 69.2035,926.375 C69.0628,926.4688 68.8441,926.5 68.4847,926.5 L66.1253,926.5 C65.7035,926.5 65.5003,926.4531 65.3597,926.3281 C65.141,926.1719 65.0003,925.9219 65.0003,925.6563 C65.0003,925.3594 65.1566,925.0781 65.4066,924.9219 C65.5628,924.8125 65.6722,924.7969 66.1253,924.7969 L66.516,924.7969 Z M65.4222,922.1094 L64.0941,918.8438 L62.7503,922.1094 Z "/><text fill="#000000" font-family="sans-serif" font-size="12" font-style="italic" lengthAdjust="spacingAndGlyphs" textLength="135" x="80.5472" y="926.1543">StrategieNegociateur</text><line style="stroke: #A80036; stroke-width: 1.5;" x1="41.5472" x2="226.5472" y1="938" y2="938"/><polygon fill="none" points="51.5472,944.9023,55.5472,948.9023,51.5472,952.9023,47.5472,948.9023" style="stroke: #B38D22; stroke-width: 1.0;"/><text fill="#000000" font-family="sans-serif" font-size="11" lengthAdjust="spacingAndGlyphs" text-decoration="underline" textLength="161" x="60.5472" y="952.2104">TAUXMINDIMINUTION: double</text><line style="stroke: #000000; stroke-width: 1.0;" x1="60.5472" x2="221.5472" y1="954.2104" y2="954.2104"/><line style="stroke: #A80036; stroke-width: 1.5;" x1="41.5472" x2="226.5472" y1="958.8047" y2="958.8047"/><ellipse cx="51.5472" cy="970.707" fill="#84BE84" rx="3" ry="3" style="stroke: #038048; stroke-width: 1.0;"/><text fill="#000000" font-family="sans-serif" font-size="11" lengthAdjust="spacingAndGlyphs" textLength="121" x="60.5472" y="973.0151">StrategieNegociteur()</text><!--class StrategieFournisseur--><rect fill="#FEFECE" filter="url(#ff3hqczgee7n9)" height="73.6094" id="StrategieFournisseur" style="stroke: #A80036; stroke-width: 1.5;" width="190" x="1406.05" y="715"/><ellipse cx="1433.65" cy="731" fill="#A9DCDF" rx="11" ry="11" style="stroke: #A80036; stroke-width: 1.0;"/><path d="M1435.2281,732.8125 L1431.1812,732.8125 L1430.7906,733.7969 L1431.1812,733.7969 C1431.6344,733.7969 1431.775,733.8281 1431.9469,733.9531 C1432.1656,734.125 1432.2906,734.375 1432.2906,734.6563 C1432.2906,734.9375 1432.15,735.2344 1431.8844,735.375 C1431.7594,735.4688 1431.5406,735.5 1431.1812,735.5 L1428.9156,735.5 C1428.1656,735.5 1427.7906,735.2188 1427.7906,734.6563 C1427.7906,734.3594 1427.9469,734.0781 1428.1969,733.9219 C1428.3531,733.8125 1428.5094,733.7969 1428.9312,733.7969 L1431.5719,727.2813 L1430.4937,727.2813 C1430.0562,727.2813 1429.8844,727.25 1429.7125,727.1406 C1429.4937,726.9688 1429.3531,726.7188 1429.3531,726.4375 C1429.3531,726.1563 1429.5094,725.875 1429.7594,725.7031 C1429.9156,725.6094 1430.0406,725.5938 1430.4937,725.5938 L1434.1656,725.5938 L1437.5562,733.7969 C1438.025,733.7969 1438.1812,733.8281 1438.3531,733.9688 C1438.5719,734.125 1438.7125,734.375 1438.7125,734.6563 C1438.7125,734.9375 1438.5562,735.2344 1438.3062,735.375 C1438.1656,735.4688 1437.9469,735.5 1437.5875,735.5 L1435.2281,735.5 C1434.8062,735.5 1434.6031,735.4531 1434.4625,735.3281 C1434.2437,735.1719 1434.1031,734.9219 1434.1031,734.6563 C1434.1031,734.3594 1434.2594,734.0781 1434.5094,733.9219 C1434.6656,733.8125 1434.775,733.7969 1435.2281,733.7969 L1435.6187,733.7969 Z M1434.525,731.1094 L1433.1969,727.8438 L1431.8531,731.1094 Z "/><text fill="#000000" font-family="sans-serif" font-size="12" font-style="italic" lengthAdjust="spacingAndGlyphs" textLength="130" x="1450.45" y="735.1543">StrategieFournisseur</text><line style="stroke: #A80036; stroke-width: 1.5;" x1="1407.05" x2="1595.05" y1="747" y2="747"/><polygon fill="none" points="1417.05,753.9023,1421.05,757.9023,1417.05,761.9023,1413.05,757.9023" style="stroke: #B38D22; stroke-width: 1.0;"/><text fill="#000000" font-family="sans-serif" font-size="11" lengthAdjust="spacingAndGlyphs" text-decoration="underline" textLength="164" x="1426.05" y="761.2104">TAUXMAXDIMINUTION: double</text><line style="stroke: #000000; stroke-width: 1.0;" x1="1426.05" x2="1590.05" y1="763.2104" y2="763.2104"/><line style="stroke: #A80036; stroke-width: 1.5;" x1="1407.05" x2="1595.05" y1="767.8047" y2="767.8047"/><ellipse cx="1417.05" cy="779.707" fill="#84BE84" rx="3" ry="3" style="stroke: #038048; stroke-width: 1.0;"/><text fill="#000000" font-family="sans-serif" font-size="11" lengthAdjust="spacingAndGlyphs" textLength="128" x="1426.05" y="782.0151">StrategieFournisseur()</text><!--link Agent to Runnable--><path d="M2409.44,811.463 C2440.03,834.503 2475.05,861.511 2506.05,887 C2516.94,895.955 2528.58,906.114 2538.79,915.242 " fill="none" id="Agent-Runnable" style="stroke: #A80036; stroke-width: 1.0; stroke-dasharray: 7.0,7.0;"/><polygon fill="#A80036" points="2542.78,918.817,2538.7542,909.8285,2539.0591,915.4771,2533.4104,915.782,2542.78,918.817" style="stroke: #A80036; stroke-width: 1.0;"/><!--link AgentFournisseur to Agent--><path d="M2330.05,617.106 C2330.05,629.884 2330.05,643.451 2330.05,656.856 " fill="none" id="AgentFournisseur-Agent" style="stroke: #A80036; stroke-width: 1.0;"/><polygon fill="none" points="2337.05,656.952,2330.05,676.952,2323.05,656.952,2337.05,656.952" style="stroke: #A80036; stroke-width: 1.0;"/><!--link AgentNegociateur to Agent--><path d="M2094.74,617.106 C2139.93,642.82 2190.73,671.726 2233.53,696.082 " fill="none" id="AgentNegociateur-Agent" style="stroke: #A80036; stroke-width: 1.0;"/><polygon fill="none" points="2237.12,690.069,2251.04,706.044,2230.2,702.237,2237.12,690.069" style="stroke: #A80036; stroke-width: 1.0;"/><!--link Preference to Compagnie--><path d="M2038.05,999.354 C2038.05,1016.817 2038.05,1036.08 2038.05,1053.451 " fill="none" id="Preference-Compagnie" style="stroke: #A80036; stroke-width: 1.0;"/><polygon fill="#A80036" points="2038.05,1058.7767,2042.05,1049.7767,2038.05,1053.7767,2034.05,1049.7767,2038.05,1058.7767" style="stroke: #A80036; stroke-width: 1.0;"/><!--link AgentNegociateur to StrategieNegociateur--><path d="M1815.82,617.114 C1809.53,618.763 1803.26,620.237 1797.05,621.5 C1749.24,631.216 75.2954,611.761 41.0472,646.5 C-18.8616,707.268 10.5073,758.819 41.0472,838.5 C50.2101,862.407 67.7261,884.258 85.1082,901.659 " fill="none" id="AgentNegociateur-StrategieNegociateur" style="stroke: #A80036; stroke-width: 1.0;"/><polygon fill="#A80036" points="89.0461,905.529,85.4299,896.368,85.4796,902.0247,79.823,902.0744,89.0461,905.529" style="stroke: #A80036; stroke-width: 1.0;"/><!--link AgentFournisseur to StrategieFournisseur--><path d="M2169.77,617.129 C2163.83,618.742 2157.91,620.21 2152.05,621.5 C2034.72,647.308 1722.66,599.636 1612.05,646.5 C1579.79,660.165 1551.22,687.629 1531.15,710.973 " fill="none" id="AgentFournisseur-StrategieFournisseur" style="stroke: #A80036; stroke-width: 1.0;"/><polygon fill="#A80036" points="1527.75,714.98,1536.6215,710.7025,1530.9837,711.1664,1530.5198,705.5286,1527.75,714.98" style="stroke: #A80036; stroke-width: 1.0;"/><!--link Agent to Preference--><path d="M2251.03,804.146 C2212.89,828.828 2166.98,858.548 2127.56,884.063 " fill="none" id="Agent-Preference" style="stroke: #A80036; stroke-width: 1.0;"/><polygon fill="#A80036" points="2123.28,886.835,2133.0095,885.3065,2127.4785,884.1198,2128.6652,878.5888,2123.28,886.835" style="stroke: #A80036; stroke-width: 1.0;"/><!--link ConsoleLogger to Logger--><path d="M3819.9,190.194 C3792.72,230.573 3757,283.646 3735.6,315.438 " fill="none" id="ConsoleLogger-Logger" style="stroke: #A80036; stroke-width: 1.0; stroke-dasharray: 7.0,7.0;"/><polygon fill="#A80036" points="3732.55,319.971,3740.8963,314.7423,3735.3439,315.8244,3734.2618,310.272,3732.55,319.971" style="stroke: #A80036; stroke-width: 1.0;"/><!--link FileLogger to Logger--><path d="M3614.93,190.194 C3641.92,230.573 3677.38,283.646 3698.63,315.438 " fill="none" id="FileLogger-Logger" style="stroke: #A80036; stroke-width: 1.0; stroke-dasharray: 7.0,7.0;"/><polygon fill="#A80036" points="3701.66,319.971,3699.9844,310.2657,3698.8816,315.814,3693.3332,314.7112,3701.66,319.971" style="stroke: #A80036; stroke-width: 1.0;"/><!--link Message to TypeMessage--><path d="M2672.88,419.07 C2662.48,443.774 2651.11,470.796 2641.51,493.614 " fill="none" id="Message-TypeMessage" style="stroke: #A80036; stroke-width: 1.0;"/><polygon fill="#A80036" points="2639.49,498.417,2646.6712,491.6768,2641.4318,493.8094,2639.2991,488.57,2639.49,498.417" style="stroke: #A80036; stroke-width: 1.0;"/><!--link Messagerie to Message--><path d="M2704.05,209.212 C2704.05,226.915 2704.05,245.875 2704.05,263.793 " fill="none" id="Messagerie-Message" style="stroke: #A80036; stroke-width: 1.0;"/><polygon fill="#A80036" points="2704.05,268.817,2708.05,259.817,2704.05,263.817,2700.05,259.817,2704.05,268.817" style="stroke: #A80036; stroke-width: 1.0;"/><!--link Message to Proposition--><path d="M2546.38,346.655 C2321.86,351.383 1923.2,369.245 1797.05,436 C1764.49,453.229 1738.73,487.099 1722.66,512.916 " fill="none" id="Message-Proposition" style="stroke: #A80036; stroke-width: 1.0;"/><polygon fill="#A80036" points="1719.97,517.311,1728.0856,511.7309,1722.5844,513.049,1721.2663,507.5478,1719.97,517.311" style="stroke: #A80036; stroke-width: 1.0;"/><!--link Message to Agent--><path d="M2727.75,419.036 C2742.14,479.189 2750.66,563.31 2709.05,621.5 C2642.26,714.898 2503.94,741.687 2414.16,748.937 " fill="none" id="Message-Agent" style="stroke: #A80036; stroke-width: 1.0;"/><polygon fill="#A80036" points="2409.12,749.328,2418.4018,752.6217,2414.1051,748.9422,2417.7846,744.6455,2409.12,749.328" style="stroke: #A80036; stroke-width: 1.0;"/><!--link Concession to RegleProtocole--><path d="M4234.05,164.801 C4234.05,193.264 4234.05,237.198 4234.05,274.319 " fill="none" id="Concession-RegleProtocole" style="stroke: #A80036; stroke-width: 1.0;"/><polygon fill="none" points="4241.05,274.379,4234.05,294.379,4227.05,274.379,4241.05,274.379" style="stroke: #A80036; stroke-width: 1.0;"/><!--link NoRules to RegleProtocole--><path d="M4099.54,164.801 C4121.77,194.255 4156.51,240.275 4185.11,278.17 " fill="none" id="NoRules-RegleProtocole" style="stroke: #A80036; stroke-width: 1.0;"/><polygon fill="none" points="4190.89,274.199,4197.35,294.379,4179.71,282.633,4190.89,274.199" style="stroke: #A80036; stroke-width: 1.0;"/><!--link Regle to RegleProtocole--><path d="M4405.54,177.092 C4374.97,206.666 4333.55,246.741 4299.07,280.095 " fill="none" id="Regle-RegleProtocole" style="stroke: #A80036; stroke-width: 1.0;"/><polygon fill="none" points="4303.52,285.53,4284.28,294.406,4293.78,275.468,4303.52,285.53" style="stroke: #A80036; stroke-width: 1.0;"/><!--link StrategieFournisseur to Strategie--><path d="M1406.04,752 C1401.16,752 1396.27,752 1391.39,752 " fill="none" id="StrategieFournisseur-Strategie" style="stroke: #A80036; stroke-width: 1.0;"/><polygon fill="none" points="1391.33,759,1371.33,752,1391.33,745,1391.33,759" style="stroke: #A80036; stroke-width: 1.0;"/><!--link StrategieNaiveFour to StrategieFournisseur--><path d="M779.94,708.998 C826.767,681.544 891.92,648.482 954.547,634 C999.473,623.611 1325.64,619.928 1369.55,634 C1405.88,645.644 1437.95,673.831 1461.33,699.736 " fill="none" id="StrategieNaiveFour-StrategieFournisseur" style="stroke: #A80036; stroke-width: 1.0;"/><polygon fill="none" points="1466.7,695.245,1474.38,714.992,1456.06,704.348,1466.7,695.245" style="stroke: #A80036; stroke-width: 1.0;"/><!--link StrategieNaiveNego to StrategieNegociateur--><path d="M234.873,795.415 C215.786,823.164 190.707,859.626 170.336,889.242 " fill="none" id="StrategieNaiveNego-StrategieNegociateur" style="stroke: #A80036; stroke-width: 1.0;"/><polygon fill="none" points="176.068,893.26,158.966,905.771,164.533,885.326,176.068,893.26" style="stroke: #A80036; stroke-width: 1.0;"/><!--link Strategie to Preference--><path d="M1312.33,814.604 C1337.33,823.506 1363.21,831.88 1388.05,838.5 C1568.46,886.595 1783.37,915.46 1915.25,930.049 " fill="none" id="Strategie-Preference" style="stroke: #A80036; stroke-width: 1.0;"/><polygon fill="#A80036" points="1920.29,930.605,1911.7916,925.6273,1915.3211,930.048,1910.9004,933.5775,1920.29,930.605" style="stroke: #A80036; stroke-width: 1.0;"/><!--
@startuml
Interface Runnable

package agent <<Frame>> {
	abstract Agent {
		preference: Preference
		#thread : Thread
		-id : int
		-{static} compteur_id
		+getId() : int
		+setId(int) : int
		+Agent(Preference)
		+{abstract}run()
	}
	class AgentFournisseur {
		-exit: boolean
		+strategieFournisseur: StrategieFournisseur
		+{static}agentFournisseurs: ArrayList<AgentFournisseur>
		+AgentFournisseur(Preference,StrategieFournisseur)
		+run()
		+stopAgent()
		-isNegTimeUp(long): boolean	
	}
	class AgentNegociateur {
		-exit: boolean
		-strategieNegociateur: StrategieNegociateur
		+getStrategieNegociateur(): StrategieNegociateur
		+setStrategieNegociateur(StrategieNegociateur)
		+AgentNegociateur(Preference,StrategieNegociateur)
		+run()
		+stopAgent()
	}
	class Preference {
		-budget: double
		-compagnies: ArrayList<Compagnie>
		-dateVenteMax: Date
		-dateVenteMin: Date
		-prixDepNeg: double
	}
	class Proposition {
		-montant_prop: double
	}
}

Agent ..> Runnable
AgentFournisseur - -|> Agent
AgentNegociateur - -|> Agent
Preference - -> Compagnie
AgentNegociateur - -> StrategieNegociateur
AgentFournisseur - -> StrategieFournisseur
Agent - -> Preference

enum Compagnie {
	AIR_FRANCE,
	BRUSSELS_AIRLINE,
	ROYAL_AIR_MAROC,
	USA_AIRLINES
}

package logger <<Frame>> {
	class ConsoleLogger {
		-{static}logger: java.util.logging.Logger
		-{static}getInstance() : java.util.logging.Logger
		+{static}logInfo(String)
		+{static}logError(String)
		+{static}logWarning(String)
	}	
	class FileLogger {
		-{static}logger: java.util.logging.Logger
		-{static}getInstance() : java.util.logging.Logger
		+{static}logInfo(String)
		+{static}logError(String)
		+{static}logWarning(String)
	}
	Interface Logger
	class LoggerUtil {
		+{static}coloredString(CharSequence, LoggerUtil.Color): String
		+{static}infoString(CharSequence, LoggerUtil.Color): String
		+{static}warningString(CharSequence, LoggerUtil.Color): String
		+{static}errorString(CharSequence, LoggerUtil.Color): String
		+ enum Color	
	}
	class MyLogger {
		+{static}logInfo(String)
		+{static}logError(String)
		+{static}logWarning(String)
	}

}

ConsoleLogger ..> Logger
FileLogger ..> Logger


package messagerie <<Frame>> {
	class Message {
		-{static} compteurId: int
		-idMessage: int
		-typeMessage: TypeMessage
		-recepteur: Agent
		-emetteur: Agent
		-proposition: Proposition
		-traite: boolean
		+Message(TypeMessage, Agent, Agent, Proposition)
	}
	class Messagerie {
		-{static}messages: List<Message>
		-{static}getMessages(int): List<Message>
		-{static}getLastMessage(int): List<Message>
		-{static}haveMessages(int): int
		-{static}addmessage(Message)
		-{static}deleteMessage(Message)
		-{static}getAncienneProposition(int, int): Proposition
		-{static}getMessages(): List<Message>
	}
	enum TypeMessage {
		REQUETE,
		PROPOSITION,
		CONTRE_PROPOSITION,
		ACK
	}

}

Message - -> TypeMessage
Messagerie - -> Message
Message - -> Proposition
Message - -> Agent

package regles <<Frame>> {
	class Concession {
		+Concession(double, int)
	}
	class NoRules {
		+NoRules()
	}
	class Regle {
		-{static}tempsNegociation: long
		-{static}regleProtocole: RegleProtocole
		-{static}nbPropositionMax: int
	}
	abstract RegleProtocole {
		#seuil: double
		#ratio: int
		+RegleProtocole(double, int)
		+RegleProtocole()
	}
}

Concession - -|> RegleProtocole
NoRules - -|> RegleProtocole
Regle - -|> RegleProtocole

package strategie <<Frame>> {
	abstract Strategie {
		#preferenceAgent: Preference
		#alea: Random
		#{abstract}contreProposition(Proposition, Proposition, Proposition): Proposition
		#{abstract}accepter(Proposition, Proposition, Proposition, boolean): boolean
		#{abstract}refuser(Proposition, Proposition, Proposition, boolean): boolean
		+reflexion(Proposition, Proposition, Proposition, boolean): Proposition
	}
	abstract StrategieFournisseur { 
		#{static}TAUXMAXDIMINUTION: double
		+StrategieFournisseur()
	}
	class StrategieNaiveFour {
		#contreProposition(Proposition, Proposition, Proposition): Proposition
		#accepter(Proposition, Proposition, Proposition, boolean): boolean
		#refuser(Proposition, Proposition, Proposition, boolean): boolean
	}
	class StrategieNaiveNego {
		#contreProposition(Proposition, Proposition, Proposition): Proposition
		#accepter(Proposition, Proposition, Proposition, boolean): boolean
		#refuser(Proposition, Proposition, Proposition, boolean): boolean
	}
	abstract StrategieNegociateur { 
		#{static}TAUXMINDIMINUTION: double
		+StrategieNegociteur()
	}

}

StrategieFournisseur - -|> Strategie
StrategieNaiveFour - -|> StrategieFournisseur
StrategieNaiveNego - -|> StrategieNegociateur
Strategie - -> Preference
@enduml

PlantUML version 1.2019.00(Sun Jan 13 15:46:42 UTC 2019)
(GPL source distribution)
Java Runtime: Java(TM) SE Runtime Environment
JVM: Java HotSpot(TM) 64-Bit Server VM
Java Version: 1.7.0_25-b15
Operating System: Linux
Default Encoding: UTF-8
Language: en
Country: US
--></g></svg>
